<svg width="22" height="16" viewBox="0 0 22 16" fill="none" xmlns="http://www.w3.org/2000/svg">
<path d="M1.83334 5.63934V4.63934C1.28106 4.63934 0.833344 5.08706 0.833344 5.63934H1.83334ZM9.33334 2.30601H10.3333C10.3333 1.9216 10.113 1.57123 9.76653 1.40471C9.42007 1.23819 9.00882 1.28501 8.70865 1.52514L9.33334 2.30601ZM9.33334 13.9727L8.70865 14.7535C9.00882 14.9937 9.42007 15.0405 9.76653 14.874C10.113 14.7075 10.3333 14.3571 10.3333 13.9727H9.33334ZM1.83334 10.6393H0.833344C0.833344 11.1916 1.28106 11.6393 1.83334 11.6393L1.83334 10.6393ZM5.16668 10.6393L5.79137 9.85847C5.61406 9.71662 5.39375 9.63934 5.16668 9.63934V10.6393ZM5.16668 5.63934V6.63934C5.39375 6.63934 5.61406 6.56206 5.79137 6.42021L5.16668 5.63934ZM18.1254 0.626206C17.7349 0.235682 17.1018 0.235682 16.7112 0.626206C16.3207 1.01673 16.3207 1.6499 16.7112 2.04042L18.1254 0.626206ZM19.4054 4.30719L18.4815 4.68988L19.4054 4.30719ZM19.4054 11.3231L20.3293 11.7057L19.4054 11.3231ZM16.7112 13.5898C16.3207 13.9804 16.3207 14.6135 16.7112 15.004C17.1018 15.3946 17.7349 15.3946 18.1255 15.004L16.7112 13.5898ZM14.5696 3.79556C14.1791 3.40503 13.5459 3.40503 13.1554 3.79556C12.7649 4.18608 12.7649 4.81925 13.1554 5.20977L14.5696 3.79556ZM14.9464 6.12478L14.0225 6.50747L14.9464 6.12478ZM14.9464 9.95162L14.0225 9.56893L14.9464 9.95162ZM13.1554 10.8666C12.7649 11.2572 12.7649 11.8903 13.1554 12.2808C13.5459 12.6714 14.1791 12.6714 14.5696 12.2808L13.1554 10.8666ZM8.33334 2.30601V13.9727H10.3333V2.30601H8.33334ZM2.83334 10.6393V5.63934H0.833344V10.6393H2.83334ZM9.95804 13.1918L5.79137 9.85847L4.54198 11.4202L8.70865 14.7535L9.95804 13.1918ZM5.16668 9.63934H1.83334V11.6393H5.16668V9.63934ZM1.83334 6.63934H5.16668V4.63934H1.83334V6.63934ZM5.79137 6.42021L9.95804 3.08688L8.70865 1.52514L4.54198 4.85847L5.79137 6.42021ZM16.7112 2.04042C17.4696 2.79877 18.0711 3.69905 18.4815 4.68988L20.3293 3.92451C19.8184 2.69103 19.0695 1.57027 18.1254 0.626206L16.7112 2.04042ZM18.4815 4.68988C18.892 5.6807 19.1032 6.74266 19.1032 7.81512H21.1032C21.1032 6.48002 20.8402 5.15799 20.3293 3.92451L18.4815 4.68988ZM19.1032 7.81512C19.1032 8.88759 18.892 9.94955 18.4815 10.9404L20.3293 11.7057C20.8402 10.4723 21.1032 9.15023 21.1032 7.81512H19.1032ZM18.4815 10.9404C18.0711 11.9312 17.4696 12.8315 16.7112 13.5898L18.1255 15.004C19.0695 14.06 19.8184 12.9392 20.3293 11.7057L18.4815 10.9404ZM13.1554 5.20977C13.5269 5.58121 13.8215 6.02216 14.0225 6.50747L15.8703 5.7421C15.5687 5.01414 15.1268 4.35271 14.5696 3.79556L13.1554 5.20977ZM14.0225 6.50747C14.2235 6.99277 14.327 7.51291 14.327 8.0382H16.327C16.327 7.25027 16.1718 6.47005 15.8703 5.7421L14.0225 6.50747ZM14.327 8.0382C14.327 8.56349 14.2235 9.08363 14.0225 9.56893L15.8703 10.3343C16.1718 9.60635 16.327 8.82613 16.327 8.0382H14.327ZM14.0225 9.56893C13.8215 10.0542 13.5269 10.4952 13.1554 10.8666L14.5696 12.2808C15.1268 11.7237 15.5687 11.0623 15.8703 10.3343L14.0225 9.56893Z" fill="#316EED"/>
</svg>
