<svg width="18" height="15" viewBox="0 0 18 15" fill="none" xmlns="http://www.w3.org/2000/svg">
<path d="M1.5 2.59389L0.894668 1.79792C0.646 1.98703 0.5 2.28149 0.5 2.59389H1.5ZM9 12.8346L8.39467 13.6306L9 14.091L9.60533 13.6306L9 12.8346ZM1.5 12.8346H0.5C0.5 13.2146 0.715351 13.5618 1.05578 13.7306C1.3962 13.8993 1.80288 13.8606 2.10533 13.6306L1.5 12.8346ZM16.5 2.59389H17.5C17.5 2.28149 17.354 1.98703 17.1053 1.79792L16.5 2.59389ZM16.5 12.8346L15.8947 13.6306C16.1971 13.8606 16.6038 13.8993 16.9442 13.7306C17.2846 13.5618 17.5 13.2146 17.5 12.8346H16.5ZM8 2.59389V12.8346H10V2.59389H8ZM2.5 12.8346V2.59389H0.5V12.8346H2.5ZM1.5 2.59389C2.10533 3.38987 2.10515 3.39 2.10498 3.39014C2.10493 3.39017 2.10476 3.3903 2.10467 3.39037C2.10447 3.39052 2.10431 3.39065 2.10417 3.39075C2.10389 3.39096 2.10372 3.39109 2.10367 3.39113C2.10355 3.39122 2.10387 3.39097 2.10463 3.39041C2.10614 3.38928 2.10936 3.38688 2.11425 3.38328C2.12404 3.37607 2.14045 3.36412 2.16304 3.34809C2.20826 3.31599 2.2779 3.26779 2.36834 3.20883C2.55004 3.09039 2.81136 2.93139 3.12407 2.77285C3.77063 2.44505 4.54222 2.16797 5.25 2.16797V0.167969C4.08278 0.167969 2.97937 0.603852 2.21968 0.989014C1.82926 1.18695 1.50465 1.38444 1.27619 1.53336C1.16156 1.60808 1.07006 1.67128 1.00542 1.71716C0.973072 1.74012 0.947369 1.7588 0.928775 1.77249C0.919476 1.77933 0.911946 1.78493 0.906244 1.7892C0.903393 1.79133 0.900998 1.79313 0.899067 1.79459C0.898101 1.79532 0.897251 1.79596 0.896517 1.79652C0.89615 1.7968 0.895813 1.79705 0.895505 1.79729C0.895351 1.7974 0.895141 1.79756 0.895064 1.79762C0.894862 1.79777 0.894668 1.79792 1.5 2.59389ZM5.25 2.16797C5.95778 2.16797 6.72937 2.44505 7.37593 2.77285C7.68864 2.93139 7.94996 3.09039 8.13166 3.20883C8.2221 3.26779 8.29174 3.31599 8.33696 3.34809C8.35955 3.36412 8.37596 3.37607 8.38575 3.38328C8.39064 3.38688 8.39386 3.38928 8.39537 3.39041C8.39613 3.39097 8.39645 3.39122 8.39633 3.39113C8.39628 3.39109 8.39611 3.39096 8.39583 3.39075C8.39569 3.39065 8.39553 3.39052 8.39533 3.39037C8.39524 3.3903 8.39507 3.39017 8.39502 3.39014C8.39485 3.39 8.39467 3.38987 9 2.59389C9.60533 1.79792 9.60514 1.79777 9.60494 1.79762C9.60486 1.79756 9.60465 1.7974 9.6045 1.79729C9.60419 1.79705 9.60385 1.7968 9.60348 1.79652C9.60275 1.79596 9.6019 1.79532 9.60093 1.79459C9.599 1.79313 9.59661 1.79133 9.59376 1.7892C9.58805 1.78493 9.58052 1.77933 9.57122 1.77249C9.55263 1.7588 9.52693 1.74012 9.49458 1.71716C9.42994 1.67128 9.33844 1.60808 9.22381 1.53336C8.99535 1.38444 8.67074 1.18695 8.28032 0.989014C7.52063 0.603852 6.41722 0.167969 5.25 0.167969V2.16797ZM9 12.8346C9.60533 12.0387 9.60514 12.0385 9.60494 12.0384C9.60486 12.0383 9.60465 12.0381 9.6045 12.038C9.60419 12.0378 9.60385 12.0375 9.60348 12.0373C9.60275 12.0367 9.6019 12.0361 9.60093 12.0353C9.599 12.0339 9.59661 12.0321 9.59376 12.0299C9.58805 12.0257 9.58052 12.0201 9.57122 12.0132C9.55263 11.9995 9.52693 11.9809 9.49458 11.9579C9.42994 11.912 9.33844 11.8488 9.22381 11.7741C8.99535 11.6252 8.67074 11.4277 8.28032 11.2298C7.52063 10.8446 6.41722 10.4087 5.25 10.4087V12.4087C5.95778 12.4087 6.72937 12.6858 7.37593 13.0136C7.68864 13.1721 7.94996 13.3311 8.13166 13.4496C8.2221 13.5085 8.29174 13.5567 8.33696 13.5888C8.35955 13.6049 8.37596 13.6168 8.38575 13.624C8.39064 13.6276 8.39386 13.63 8.39537 13.6312C8.39613 13.6317 8.39645 13.632 8.39633 13.6319C8.39628 13.6318 8.39611 13.6317 8.39583 13.6315C8.39569 13.6314 8.39553 13.6313 8.39533 13.6311C8.39524 13.631 8.39507 13.6309 8.39502 13.6309C8.39485 13.6307 8.39467 13.6306 9 12.8346ZM5.25 10.4087C4.08278 10.4087 2.97937 10.8446 2.21968 11.2298C1.82926 11.4277 1.50465 11.6252 1.27619 11.7741C1.16156 11.8488 1.07006 11.912 1.00542 11.9579C0.973072 11.9809 0.947369 11.9995 0.928776 12.0132C0.919476 12.0201 0.911946 12.0257 0.906245 12.0299C0.903394 12.0321 0.900998 12.0339 0.899067 12.0353C0.898101 12.0361 0.897251 12.0367 0.896517 12.0373C0.896151 12.0375 0.895813 12.0378 0.895505 12.038C0.895351 12.0381 0.895141 12.0383 0.895064 12.0384C0.894862 12.0385 0.894668 12.0387 1.5 12.8346C2.10533 13.6306 2.10515 13.6307 2.10498 13.6309C2.10493 13.6309 2.10476 13.631 2.10467 13.6311C2.10447 13.6313 2.10431 13.6314 2.10417 13.6315C2.10389 13.6317 2.10372 13.6318 2.10367 13.6319C2.10355 13.632 2.10387 13.6317 2.10463 13.6312C2.10614 13.63 2.10936 13.6276 2.11425 13.624C2.12404 13.6168 2.14045 13.6049 2.16304 13.5888C2.20826 13.5567 2.2779 13.5085 2.36834 13.4496C2.55004 13.3311 2.81136 13.1721 3.12407 13.0136C3.77063 12.6858 4.54222 12.4087 5.25 12.4087V10.4087ZM15.5 2.59389V12.8346H17.5V2.59389H15.5ZM9 2.59389C9.60533 3.38987 9.60515 3.39 9.60498 3.39014C9.60493 3.39017 9.60476 3.3903 9.60467 3.39037C9.60447 3.39052 9.60431 3.39065 9.60417 3.39075C9.60389 3.39096 9.60372 3.39109 9.60367 3.39113C9.60355 3.39122 9.60387 3.39097 9.60463 3.39041C9.60614 3.38928 9.60936 3.38688 9.61425 3.38328C9.62404 3.37607 9.64045 3.36412 9.66304 3.34809C9.70827 3.31599 9.7779 3.26779 9.86834 3.20883C10.05 3.09039 10.3114 2.93139 10.6241 2.77285C11.2706 2.44505 12.0422 2.16797 12.75 2.16797V0.167969C11.5828 0.167969 10.4794 0.603852 9.71968 0.989014C9.32926 1.18695 9.00465 1.38444 8.77619 1.53336C8.66156 1.60808 8.57006 1.67128 8.50542 1.71716C8.47307 1.74012 8.44737 1.7588 8.42878 1.77249C8.41948 1.77933 8.41195 1.78493 8.40624 1.7892C8.40339 1.79133 8.401 1.79313 8.39907 1.79459C8.3981 1.79532 8.39725 1.79596 8.39652 1.79652C8.39615 1.7968 8.39581 1.79705 8.3955 1.79729C8.39535 1.7974 8.39514 1.79756 8.39506 1.79762C8.39486 1.79777 8.39467 1.79792 9 2.59389ZM12.75 2.16797C13.4578 2.16797 14.2294 2.44505 14.8759 2.77285C15.1886 2.93139 15.45 3.09039 15.6317 3.20883C15.7221 3.26779 15.7917 3.31599 15.837 3.34809C15.8595 3.36412 15.876 3.37607 15.8857 3.38328C15.8906 3.38688 15.8939 3.38928 15.8954 3.39041C15.8961 3.39097 15.8964 3.39122 15.8963 3.39113C15.8963 3.39109 15.8961 3.39096 15.8958 3.39075C15.8957 3.39065 15.8955 3.39052 15.8953 3.39037C15.8952 3.3903 15.8951 3.39017 15.895 3.39014C15.8948 3.39 15.8947 3.38987 16.5 2.59389C17.1053 1.79792 17.1051 1.79777 17.1049 1.79762C17.1049 1.79756 17.1046 1.7974 17.1045 1.79729C17.1042 1.79705 17.1038 1.7968 17.1035 1.79652C17.1027 1.79596 17.1019 1.79532 17.1009 1.79459C17.099 1.79313 17.0966 1.79133 17.0938 1.7892C17.0881 1.78493 17.0805 1.77933 17.0712 1.77249C17.0526 1.7588 17.0269 1.74012 16.9946 1.71716C16.9299 1.67128 16.8384 1.60808 16.7238 1.53336C16.4954 1.38444 16.1707 1.18695 15.7803 0.989014C15.0206 0.603852 13.9172 0.167969 12.75 0.167969V2.16797ZM16.5 12.8346C17.1053 12.0387 17.1051 12.0385 17.1049 12.0384C17.1049 12.0383 17.1046 12.0381 17.1045 12.038C17.1042 12.0378 17.1038 12.0375 17.1035 12.0373C17.1027 12.0367 17.1019 12.0361 17.1009 12.0353C17.099 12.0339 17.0966 12.0321 17.0938 12.0299C17.0881 12.0257 17.0805 12.0201 17.0712 12.0132C17.0526 11.9995 17.0269 11.9809 16.9946 11.9579C16.9299 11.912 16.8384 11.8488 16.7238 11.7741C16.4954 11.6252 16.1707 11.4277 15.7803 11.2298C15.0206 10.8446 13.9172 10.4087 12.75 10.4087V12.4087C13.4578 12.4087 14.2294 12.6858 14.8759 13.0136C15.1886 13.1721 15.45 13.3311 15.6317 13.4496C15.7221 13.5085 15.7917 13.5567 15.837 13.5888C15.8595 13.6049 15.876 13.6168 15.8857 13.624C15.8906 13.6276 15.8939 13.63 15.8954 13.6312C15.8961 13.6317 15.8965 13.632 15.8963 13.6319C15.8963 13.6318 15.8961 13.6317 15.8958 13.6315C15.8957 13.6314 15.8955 13.6313 15.8953 13.6311C15.8952 13.631 15.8951 13.6309 15.895 13.6309C15.8948 13.6307 15.8947 13.6306 16.5 12.8346ZM12.75 10.4087C11.5828 10.4087 10.4794 10.8446 9.71968 11.2298C9.32926 11.4277 9.00465 11.6252 8.77619 11.7741C8.66156 11.8488 8.57006 11.912 8.50542 11.9579C8.47307 11.9809 8.44737 11.9995 8.42878 12.0132C8.41948 12.0201 8.41195 12.0257 8.40624 12.0299C8.40339 12.0321 8.401 12.0339 8.39907 12.0353C8.3981 12.0361 8.39725 12.0367 8.39652 12.0373C8.39615 12.0375 8.39581 12.0378 8.3955 12.038C8.39535 12.0381 8.39514 12.0383 8.39506 12.0384C8.39486 12.0385 8.39467 12.0387 9 12.8346C9.60533 13.6306 9.60515 13.6307 9.60498 13.6309C9.60493 13.6309 9.60476 13.631 9.60467 13.6311C9.60447 13.6313 9.60431 13.6314 9.60417 13.6315C9.60389 13.6317 9.60372 13.6318 9.60367 13.6319C9.60355 13.632 9.60387 13.6317 9.60463 13.6312C9.60614 13.63 9.60936 13.6276 9.61425 13.624C9.62404 13.6168 9.64045 13.6049 9.66304 13.5888C9.70826 13.5567 9.7779 13.5085 9.86834 13.4496C10.05 13.3311 10.3114 13.1721 10.6241 13.0136C11.2706 12.6858 12.0422 12.4087 12.75 12.4087V10.4087Z" fill="white"/>
</svg>
