<svg width="188" height="188" viewBox="0 0 188 188" fill="none" xmlns="http://www.w3.org/2000/svg">
<path d="M185.238 7H77.9161C77.0915 12.0326 76.678 17.1241 76.6797 22.2239C76.6797 73.7062 118.37 115.441 169.797 115.441C174.97 115.443 180.135 115.016 185.238 114.164V7Z" fill="#262338"/>
<path d="M139.814 58.2758C138.203 58.2773 136.605 57.9886 135.097 57.4236C135.01 57.3912 134.931 57.3422 134.864 57.2792C134.796 57.2162 134.742 57.1406 134.704 57.0566C134.666 56.9726 134.645 56.8819 134.641 56.7897C134.638 56.6975 134.653 56.6055 134.686 56.5191C134.718 56.4327 134.767 56.3535 134.83 56.2861C134.893 56.2187 134.968 56.1643 135.052 56.1261C135.136 56.0879 135.227 56.0666 135.319 56.0635C135.411 56.0603 135.503 56.0754 135.589 56.1078C137.589 56.8478 139.748 57.0527 141.851 56.7023C143.954 56.3519 145.93 55.4583 147.583 54.1097C142.427 54.1646 137.383 51.7253 134.874 47.8111C133.261 45.2949 132.734 42.3341 133.349 39.2486C133.819 37.0111 134.786 34.908 136.177 33.0943C133.521 33.9403 131.236 35.6726 129.702 38.0021C128.168 40.3315 127.479 43.1172 127.749 45.8941C127.758 45.9861 127.75 46.079 127.723 46.1676C127.696 46.2562 127.653 46.3386 127.594 46.4102C127.536 46.4819 127.464 46.5412 127.382 46.5849C127.301 46.6286 127.212 46.6558 127.12 46.665C127.028 46.6741 126.935 46.6649 126.847 46.6381C126.758 46.6112 126.676 46.5672 126.605 46.5084C126.533 46.4497 126.474 46.3774 126.431 46.2958C126.388 46.2141 126.361 46.1247 126.352 46.0327C126.011 42.539 127.033 39.0487 129.205 36.2924C131.376 33.5361 134.528 31.7274 138.001 31.245C138.147 31.2248 138.295 31.2506 138.424 31.3188C138.554 31.387 138.659 31.4942 138.725 31.6254C138.791 31.7565 138.814 31.905 138.791 32.05C138.769 32.195 138.701 32.3292 138.598 32.4338C135.008 36.0841 132.83 42.0198 136.055 47.0522C138.6 51.022 144.076 53.2925 149.375 52.5749C149.517 52.5556 149.661 52.5804 149.789 52.6459C149.917 52.7114 150.021 52.8145 150.088 52.9413C150.156 53.0681 150.183 53.2125 150.166 53.355C150.148 53.4976 150.088 53.6315 149.993 53.7386C148.71 55.1685 147.14 56.3116 145.386 57.0934C143.632 57.8752 141.734 58.2781 139.814 58.2758Z" fill="white"/>
<path d="M128.619 58.5515C127.601 58.5515 126.606 58.2493 125.76 57.6831C124.913 57.1169 124.254 56.3122 123.864 55.3707C123.474 54.4291 123.372 53.3931 123.571 52.3936C123.77 51.394 124.26 50.4759 124.98 49.7553C125.7 49.0347 126.617 48.5439 127.615 48.3451C128.614 48.1463 129.649 48.2483 130.589 48.6383C131.53 49.0283 132.333 49.6888 132.899 50.5361C133.465 51.3835 133.766 52.3797 133.766 53.3988C133.765 54.7649 133.222 56.0746 132.257 57.0406C131.292 58.0066 129.984 58.55 128.619 58.5515ZM128.619 49.6514C127.879 49.6514 127.155 49.8712 126.54 50.2829C125.924 50.6947 125.444 51.28 125.161 51.9647C124.878 52.6495 124.803 53.403 124.948 54.1299C125.092 54.8568 125.449 55.5245 125.972 56.0486C126.496 56.5727 127.163 56.9296 127.889 57.0742C128.615 57.2188 129.368 57.1446 130.052 56.861C130.736 56.5773 131.321 56.097 131.732 55.4808C132.143 54.8645 132.363 54.14 132.363 53.3988C132.362 52.4053 131.967 51.4528 131.265 50.7502C130.563 50.0477 129.612 49.6525 128.619 49.6514Z" fill="white"/>
<path d="M41.1959 19.8081C40.9282 19.8081 40.6715 19.7016 40.4822 19.5121C40.2929 19.3227 40.1866 19.0657 40.1866 18.7977V15.7666C40.187 15.4989 40.2935 15.2423 40.4827 15.0532C40.672 14.864 40.9284 14.7578 41.1959 14.7578C41.4633 14.7578 41.7198 14.864 41.909 15.0532C42.0982 15.2423 42.2047 15.4989 42.2051 15.7666V18.7977C42.2051 18.9304 42.179 19.0618 42.1283 19.1844C42.0776 19.3069 42.0032 19.4183 41.9095 19.5121C41.8158 19.606 41.7045 19.6804 41.5821 19.7312C41.4596 19.7819 41.3284 19.8081 41.1959 19.8081Z" fill="#316EED"/>
<path d="M41.1958 43.0455C41.0633 43.0455 40.932 43.0194 40.8096 42.9686C40.6871 42.9178 40.5758 42.8434 40.4821 42.7496C40.3884 42.6558 40.3141 42.5444 40.2633 42.4218C40.2126 42.2992 40.1865 42.1678 40.1865 42.0352V39.0041C40.1863 38.8713 40.2123 38.7397 40.2629 38.617C40.3135 38.4942 40.3878 38.3826 40.4816 38.2887C40.5753 38.1947 40.6867 38.1201 40.8092 38.0692C40.9318 38.0184 41.0631 37.9922 41.1958 37.9922C41.3285 37.9922 41.4598 38.0184 41.5824 38.0692C41.7049 38.1201 41.8163 38.1947 41.91 38.2887C42.0037 38.3826 42.0781 38.4942 42.1287 38.617C42.1793 38.7397 42.2053 38.8713 42.2051 39.0041V42.0352C42.2051 42.1678 42.179 42.2992 42.1282 42.4218C42.0775 42.5444 42.0032 42.6558 41.9095 42.7496C41.8157 42.8434 41.7045 42.9178 41.582 42.9686C41.4596 43.0194 41.3283 43.0455 41.1958 43.0455Z" fill="#316EED"/>
<path d="M48.3325 22.7651C48.1329 22.7651 47.9377 22.7058 47.7718 22.5948C47.6058 22.4838 47.4764 22.326 47.4001 22.1414C47.3237 21.9567 47.3037 21.7536 47.3426 21.5576C47.3816 21.3616 47.4777 21.1816 47.6188 21.0403L49.7598 18.8971C49.9491 18.7078 50.2058 18.6015 50.4733 18.6016C50.7409 18.6016 50.9975 18.7081 51.1867 18.8975C51.3759 19.0869 51.4822 19.3438 51.4823 19.6117C51.4824 19.8795 51.3762 20.1364 51.1871 20.326L49.0461 22.4692C48.9525 22.5631 48.8413 22.6376 48.7188 22.6884C48.5963 22.7392 48.4651 22.7653 48.3325 22.7651Z" fill="#316EED"/>
<path d="M31.9179 39.1991C31.7183 39.1991 31.5232 39.1399 31.3572 39.0288C31.1913 38.9178 31.0619 38.76 30.9855 38.5754C30.9091 38.3908 30.8891 38.1877 30.9281 37.9917C30.967 37.7957 31.0631 37.6157 31.2043 37.4743L33.3452 35.3311C33.5345 35.1416 33.7912 35.0352 34.0588 35.0352C34.3265 35.0352 34.5832 35.1416 34.7725 35.3311C34.9618 35.5205 35.0681 35.7775 35.0681 36.0455C35.0681 36.3135 34.9618 36.5705 34.7725 36.7599L32.6316 38.9032C32.538 38.9972 32.4268 39.0717 32.3043 39.1224C32.1818 39.1732 32.0505 39.1993 31.9179 39.1991Z" fill="#316EED"/>
<path d="M54.3163 29.9113H51.2885C51.0211 29.9109 50.7648 29.8043 50.5758 29.6149C50.3869 29.4254 50.2808 29.1687 50.2808 28.901C50.2808 28.6333 50.3869 28.3765 50.5758 28.1871C50.7648 27.9977 51.0211 27.891 51.2885 27.8906H54.3163C54.449 27.8904 54.5804 27.9164 54.703 27.9671C54.8257 28.0178 54.9371 28.0922 55.031 28.186C55.1249 28.2799 55.1994 28.3913 55.2502 28.514C55.301 28.6367 55.3271 28.7682 55.3271 28.901C55.3271 29.0338 55.301 29.1653 55.2502 29.288C55.1994 29.4107 55.1249 29.5221 55.031 29.616C54.9371 29.7098 54.8257 29.7842 54.703 29.8349C54.5804 29.8856 54.449 29.9116 54.3163 29.9113Z" fill="#316EED"/>
<path d="M31.1031 29.9113H28.0753C27.9426 29.9116 27.8112 29.8856 27.6886 29.8349C27.5659 29.7842 27.4545 29.7098 27.3606 29.616C27.2667 29.5221 27.1922 29.4107 27.1414 29.288C27.0906 29.1653 27.0645 29.0338 27.0645 28.901C27.0645 28.7682 27.0906 28.6367 27.1414 28.514C27.1922 28.3913 27.2667 28.2799 27.3606 28.186C27.4545 28.0922 27.5659 28.0178 27.6886 27.9671C27.8112 27.9164 27.9426 27.8904 28.0753 27.8906H31.1031C31.3705 27.891 31.6268 27.9977 31.8158 28.1871C32.0047 28.3765 32.1108 28.6333 32.1108 28.901C32.1108 29.1687 32.0047 29.4254 31.8158 29.6149C31.6268 29.8043 31.3705 29.9109 31.1031 29.9113H31.1031Z" fill="#316EED"/>
<path d="M50.4737 39.1999C50.3412 39.2001 50.2099 39.174 50.0874 39.1232C49.9649 39.0724 49.8537 38.9979 49.7601 38.904L47.6192 36.7607C47.5253 36.6669 47.4508 36.5555 47.3999 36.4329C47.349 36.3103 47.3228 36.1788 47.3228 36.0461C47.3227 35.9133 47.3488 35.7818 47.3995 35.6591C47.4502 35.5364 47.5246 35.425 47.6184 35.3311C47.7121 35.2372 47.8235 35.1627 47.946 35.112C48.0686 35.0612 48.1999 35.0351 48.3326 35.0352C48.4652 35.0352 48.5965 35.0615 48.719 35.1124C48.8415 35.1633 48.9528 35.2379 49.0465 35.3319L51.1874 37.4751C51.3285 37.6164 51.4247 37.7965 51.4636 37.9924C51.5025 38.1884 51.4826 38.3916 51.4062 38.5762C51.3298 38.7608 51.2004 38.9186 51.0345 39.0296C50.8685 39.1406 50.6734 39.1999 50.4737 39.1999V39.1999Z" fill="#316EED"/>
<path d="M34.0589 22.7655C33.9263 22.7657 33.795 22.7396 33.6726 22.6889C33.5501 22.6381 33.4389 22.5635 33.3453 22.4696L31.2043 20.3264C31.1106 20.2326 31.0362 20.1212 30.9855 19.9986C30.9348 19.876 30.9087 19.7446 30.9087 19.6119C30.9087 19.4793 30.9348 19.3479 30.9855 19.2253C31.0362 19.1027 31.1106 18.9913 31.2043 18.8975C31.298 18.8037 31.4093 18.7292 31.5317 18.6785C31.6542 18.6277 31.7854 18.6016 31.918 18.6016C32.0505 18.6016 32.1818 18.6277 32.3042 18.6785C32.4267 18.7292 32.5379 18.8037 32.6317 18.8975L34.7726 21.0407C34.9137 21.182 35.0098 21.3621 35.0488 21.5581C35.0877 21.754 35.0677 21.9572 34.9913 22.1418C34.9149 22.3264 34.7856 22.4842 34.6196 22.5952C34.4536 22.7063 34.2585 22.7655 34.0589 22.7655Z" fill="#316EED"/>
<path d="M41.1958 34.9641C39.9981 34.9641 38.8273 34.6086 37.8314 33.9425C36.8356 33.2764 36.0594 32.3296 35.6011 31.2219C35.1428 30.1142 35.0228 28.8953 35.2565 27.7193C35.4902 26.5434 36.0669 25.4632 36.9138 24.6154C37.7607 23.7676 38.8397 23.1902 40.0144 22.9563C41.1891 22.7224 42.4067 22.8425 43.5132 23.3013C44.6197 23.7601 45.5655 24.5371 46.2309 25.534C46.8963 26.531 47.2514 27.703 47.2514 28.902C47.2496 30.5092 46.611 32.0501 45.4758 33.1866C44.3405 34.3231 42.8013 34.9623 41.1958 34.9641ZM41.1958 24.8606C40.3973 24.8606 39.6168 25.0976 38.9529 25.5417C38.289 25.9857 37.7716 26.6169 37.466 27.3554C37.1604 28.0939 37.0805 28.9065 37.2363 29.6904C37.392 30.4744 37.7765 31.1945 38.3411 31.7597C38.9057 32.3249 39.6251 32.7098 40.4082 32.8658C41.1913 33.0217 42.003 32.9417 42.7407 32.6358C43.4784 32.3299 44.1089 31.8119 44.5525 31.1473C44.9961 30.4827 45.2329 29.7013 45.2329 28.902C45.2317 27.8305 44.806 26.8033 44.0491 26.0456C43.2923 25.288 42.2661 24.8618 41.1958 24.8606Z" fill="#316EED"/>
<path d="M18.2031 97.8328C18.1968 98.1838 18.1216 98.5302 17.9816 98.8521C17.8416 99.1739 17.6397 99.465 17.3873 99.7088C17.1349 99.9525 16.837 100.144 16.5107 100.273C16.1843 100.401 15.8359 100.464 15.4852 100.457H2.87663C2.83094 100.456 2.78526 100.455 2.73957 100.452C2.62143 100.444 2.50398 100.428 2.38812 100.403V95.9354C2.38805 95.7566 2.44254 95.5821 2.54429 95.4351C2.64604 95.2882 2.79019 95.1759 2.95746 95.1133H15.5813C16.289 95.1267 16.9624 95.4205 17.4539 95.9304C17.9454 96.4402 18.2148 97.1244 18.2031 97.8328H18.2031Z" fill="#262338"/>
<path d="M84.771 94.8242H3.45553C3.28031 94.8237 3.10655 94.856 2.94319 94.9194C2.66609 95.0232 2.42727 95.2092 2.25871 95.4526C2.09015 95.696 1.99988 95.9851 2 96.2813V185.067C2.00014 185.453 2.15354 185.824 2.42647 186.097C2.69941 186.37 3.06954 186.524 3.45553 186.524H84.771C85.157 186.524 85.5271 186.37 85.8 186.097C86.073 185.824 86.2264 185.453 86.2265 185.067V96.2813C86.2264 95.8949 86.073 95.5244 85.8 95.2512C85.5271 94.9779 85.157 94.8244 84.771 94.8242ZM85.6443 185.067C85.6439 185.298 85.5518 185.521 85.3881 185.684C85.2244 185.848 85.0025 185.941 84.771 185.941H3.45553C3.22402 185.941 3.00209 185.848 2.83839 185.684C2.67468 185.521 2.58256 185.298 2.58221 185.067V96.2813C2.58256 96.0496 2.67468 95.8274 2.83839 95.6635C3.00209 95.4996 3.22402 95.4074 3.45553 95.4071H84.771C85.0025 95.4074 85.2244 95.4996 85.3881 95.6635C85.5518 95.8274 85.6439 96.0496 85.6443 96.2813V185.067Z" fill="#262338"/>
<path d="M9.66608 96.2384C9.6235 96.2811 9.59958 96.3389 9.59957 96.3992C9.59957 96.4595 9.62348 96.5173 9.66606 96.5599L9.66608 96.5599L10.6409 97.5358H8.23715C8.17704 97.5359 8.11946 97.56 8.07702 97.6026C8.03457 97.6452 8.01074 97.7029 8.01074 97.7631C8.01074 97.8233 8.03457 97.881 8.07702 97.9236C8.11946 97.9662 8.17704 97.9902 8.23715 97.9904H10.6409L9.66608 98.9662C9.6235 99.0089 9.59958 99.0667 9.59957 99.127C9.59957 99.1873 9.6235 99.2451 9.66608 99.2877C9.70867 99.3303 9.76642 99.3543 9.82665 99.3543C9.88687 99.3543 9.94462 99.3303 9.98721 99.2877L11.3496 97.9238C11.3922 97.8812 11.4162 97.8234 11.4162 97.7631C11.4162 97.7028 11.3922 97.645 11.3496 97.6023L9.98721 96.2384C9.94462 96.1958 9.88686 96.1719 9.82665 96.1719C9.76643 96.1719 9.70868 96.1958 9.6661 96.2384H9.66608Z" fill="white"/>
<path d="M40.7171 176.034C40.1221 176.034 39.5405 175.858 39.0459 175.527C38.5512 175.196 38.1656 174.726 37.938 174.175C37.7103 173.625 37.6507 173.02 37.7668 172.436C37.8829 171.851 38.1693 171.315 38.59 170.894C39.0107 170.473 39.5467 170.186 40.1302 170.07C40.7137 169.953 41.3186 170.013 41.8682 170.241C42.4179 170.469 42.8877 170.855 43.2182 171.35C43.5487 171.845 43.7252 172.427 43.7252 173.023C43.7252 173.418 43.6474 173.81 43.4962 174.175C43.345 174.541 43.1234 174.873 42.8441 175.152C42.5648 175.432 42.2332 175.654 41.8682 175.805C41.5033 175.956 41.1121 176.034 40.7171 176.034Z" fill="#D9DBE9"/>
<path d="M41.4157 172.73H40.8917V172.147C40.8917 172.096 40.8733 172.046 40.8405 172.01C40.8078 171.974 40.7633 171.953 40.717 171.953C40.6707 171.953 40.6263 171.974 40.5935 172.01C40.5608 172.046 40.5423 172.096 40.5423 172.147V172.73H40.0184C39.972 172.73 39.9276 172.751 39.8948 172.787C39.8621 172.823 39.8437 172.873 39.8437 172.924C39.8437 172.976 39.8621 173.025 39.8948 173.062C39.9276 173.098 39.972 173.119 40.0184 173.119H40.5423V173.701C40.5423 173.727 40.5468 173.752 40.5555 173.776C40.5643 173.799 40.5771 173.821 40.5934 173.839C40.6096 173.857 40.6289 173.871 40.6501 173.881C40.6713 173.891 40.694 173.896 40.717 173.896C40.74 173.896 40.7627 173.891 40.7839 173.881C40.8052 173.871 40.8244 173.857 40.8407 173.839C40.8569 173.821 40.8697 173.799 40.8785 173.776C40.8873 173.752 40.8917 173.727 40.8917 173.701V173.119H41.4157C41.462 173.119 41.5064 173.098 41.5392 173.062C41.5719 173.025 41.5903 172.976 41.5903 172.924C41.5903 172.873 41.5719 172.823 41.5392 172.787C41.5064 172.751 41.462 172.73 41.4157 172.73Z" fill="white"/>
<path d="M47.5096 176.034C46.9146 176.034 46.333 175.858 45.8383 175.527C45.3437 175.196 44.9581 174.726 44.7304 174.175C44.5028 173.625 44.4432 173.02 44.5593 172.436C44.6753 171.851 44.9618 171.315 45.3825 170.894C45.8032 170.473 46.3392 170.186 46.9227 170.07C47.5062 169.953 48.111 170.013 48.6607 170.241C49.2104 170.469 49.6802 170.855 50.0107 171.35C50.3412 171.845 50.5176 172.427 50.5176 173.023C50.5176 173.418 50.4398 173.81 50.2887 174.175C50.1375 174.541 49.9159 174.873 49.6366 175.152C49.3573 175.432 49.0257 175.654 48.6607 175.805C48.2957 175.956 47.9046 176.034 47.5096 176.034Z" fill="#D9DBE9"/>
<path d="M48.7314 173.999L48.1518 173.296C48.2875 173.097 48.3464 172.853 48.3169 172.611C48.2875 172.369 48.1718 172.148 47.9926 171.99C47.8135 171.832 47.5838 171.75 47.3489 171.758C47.1139 171.767 46.8906 171.867 46.723 172.038C46.5554 172.209 46.4556 172.438 46.4432 172.682C46.4308 172.925 46.5067 173.164 46.656 173.353C46.8053 173.541 47.0172 173.664 47.25 173.699C47.4827 173.733 47.7195 173.676 47.9137 173.539L48.478 174.224C48.5068 174.258 48.5476 174.279 48.5915 174.283C48.6354 174.286 48.6788 174.272 48.7123 174.242C48.7458 174.212 48.7666 174.17 48.7702 174.125C48.7737 174.079 48.7598 174.034 48.7314 173.999ZM46.7724 172.73C46.7724 172.605 46.8082 172.483 46.8753 172.379C46.9424 172.275 47.0378 172.194 47.1494 172.146C47.261 172.098 47.3838 172.085 47.5023 172.11C47.6208 172.134 47.7296 172.194 47.815 172.283C47.9004 172.371 47.9586 172.484 47.9822 172.607C48.0057 172.73 47.9937 172.857 47.9474 172.973C47.9012 173.088 47.8229 173.187 47.7225 173.257C47.622 173.326 47.5039 173.363 47.3831 173.363C47.2212 173.363 47.066 173.296 46.9515 173.178C46.837 173.059 46.7725 172.898 46.7724 172.73Z" fill="white"/>
<path d="M30.264 177.232C30.2126 177.232 30.1632 177.211 30.1268 177.175C30.0904 177.139 30.0699 177.089 30.0698 177.038C30.0698 176.986 30.0902 176.937 30.1266 176.9C30.1629 176.864 30.2123 176.843 30.2638 176.843L57.9626 176.809H57.9628C58.0143 176.809 58.0637 176.829 58.1001 176.865C58.1365 176.902 58.157 176.951 58.1571 177.003C58.1571 177.054 58.1367 177.104 58.1003 177.14C58.064 177.177 58.0146 177.197 57.9631 177.197L30.2643 177.232H30.264Z" fill="#262338"/>
<path d="M41.6129 125.332C42.6679 125.332 43.5231 124.476 43.5231 123.42C43.5231 122.364 42.6679 121.508 41.6129 121.508C40.5579 121.508 39.7026 122.364 39.7026 123.42C39.7026 124.476 40.5579 125.332 41.6129 125.332Z" fill="#316EED"/>
<path d="M49.5723 125.332C50.6273 125.332 51.4826 124.476 51.4826 123.42C51.4826 122.364 50.6273 121.508 49.5723 121.508C48.5174 121.508 47.6621 122.364 47.6621 123.42C47.6621 124.476 48.5174 125.332 49.5723 125.332Z" fill="#316EED"/>
<path d="M25.6944 141.133C26.7494 141.133 27.6047 140.277 27.6047 139.221C27.6047 138.165 26.7494 137.309 25.6944 137.309C24.6394 137.309 23.7842 138.165 23.7842 139.221C23.7842 140.277 24.6394 141.133 25.6944 141.133Z" fill="#316EED"/>
<path d="M33.6539 141.133C34.7089 141.133 35.5641 140.277 35.5641 139.221C35.5641 138.165 34.7089 137.309 33.6539 137.309C32.5989 137.309 31.7437 138.165 31.7437 139.221C31.7437 140.277 32.5989 141.133 33.6539 141.133Z" fill="#316EED"/>
<path d="M41.6129 149.036C42.6679 149.036 43.5231 148.179 43.5231 147.123C43.5231 146.067 42.6679 145.211 41.6129 145.211C40.5579 145.211 39.7026 146.067 39.7026 147.123C39.7026 148.179 40.5579 149.036 41.6129 149.036Z" fill="#316EED"/>
<path d="M49.5723 149.036C50.6273 149.036 51.4826 148.179 51.4826 147.123C51.4826 146.067 50.6273 145.211 49.5723 145.211C48.5174 145.211 47.6621 146.067 47.6621 147.123C47.6621 148.179 48.5174 149.036 49.5723 149.036Z" fill="#316EED"/>
<path d="M57.5318 149.036C58.5868 149.036 59.442 148.179 59.442 147.123C59.442 146.067 58.5868 145.211 57.5318 145.211C56.4768 145.211 55.6216 146.067 55.6216 147.123C55.6216 148.179 56.4768 149.036 57.5318 149.036Z" fill="#316EED"/>
<path d="M67.2361 127.498H15.9443C15.7459 127.498 15.585 127.411 15.585 127.304C15.585 127.196 15.7459 127.109 15.9443 127.109H67.2361C67.4346 127.109 67.5955 127.196 67.5955 127.304C67.5955 127.411 67.4346 127.498 67.2361 127.498Z" fill="#262338"/>
<path d="M67.2361 118.916H15.9443C15.7459 118.916 15.585 118.829 15.585 118.722C15.585 118.614 15.7459 118.527 15.9443 118.527H67.2361C67.4346 118.527 67.5955 118.614 67.5955 118.722C67.5955 118.829 67.4346 118.916 67.2361 118.916Z" fill="#262338"/>
<path d="M67.4013 135.517H15.8249C15.7735 135.517 15.7241 135.497 15.6877 135.461C15.6513 135.424 15.6309 135.375 15.6309 135.323C15.6309 135.272 15.6513 135.222 15.6877 135.186C15.7241 135.149 15.7735 135.129 15.8249 135.129H67.4013C67.4527 135.129 67.5021 135.149 67.5385 135.186C67.5749 135.222 67.5953 135.272 67.5953 135.323C67.5953 135.375 67.5749 135.424 67.5385 135.461C67.5021 135.497 67.4527 135.517 67.4013 135.517Z" fill="#262338"/>
<path d="M67.4013 143.287H15.8249C15.7735 143.287 15.7241 143.267 15.6877 143.23C15.6513 143.194 15.6309 143.144 15.6309 143.093C15.6309 143.041 15.6513 142.992 15.6877 142.955C15.7241 142.919 15.7735 142.898 15.8249 142.898H67.4013C67.4527 142.898 67.5021 142.919 67.5385 142.955C67.5749 142.992 67.5953 143.041 67.5953 143.093C67.5953 143.144 67.5749 143.194 67.5385 143.23C67.5021 143.267 67.4527 143.287 67.4013 143.287Z" fill="#262338"/>
<path d="M67.4013 151.252H15.8249C15.7735 151.252 15.7241 151.231 15.6877 151.195C15.6513 151.158 15.6309 151.109 15.6309 151.058C15.6309 151.006 15.6513 150.957 15.6877 150.92C15.7241 150.884 15.7735 150.863 15.8249 150.863H67.4013C67.4527 150.863 67.5021 150.884 67.5385 150.92C67.5749 150.957 67.5953 151.006 67.5953 151.058C67.5953 151.109 67.5749 151.158 67.5385 151.195C67.5021 151.231 67.4527 151.252 67.4013 151.252Z" fill="#262338"/>
<path d="M61.3853 150.853V118.843C61.3853 118.777 61.4722 118.723 61.5793 118.723C61.6865 118.723 61.7734 118.777 61.7734 118.843V150.853C61.7734 150.919 61.6865 150.973 61.5793 150.973C61.4722 150.973 61.3853 150.919 61.3853 150.853Z" fill="#262338"/>
<path d="M53.4282 150.853V118.843C53.4282 118.777 53.5151 118.723 53.6223 118.723C53.7295 118.723 53.8164 118.777 53.8164 118.843V150.853C53.8164 150.919 53.7295 150.973 53.6223 150.973C53.5151 150.973 53.4282 150.919 53.4282 150.853Z" fill="#262338"/>
<path d="M45.4717 150.853V118.843C45.4717 118.777 45.5586 118.723 45.6658 118.723C45.7729 118.723 45.8598 118.777 45.8598 118.843V150.853C45.8598 150.919 45.7729 150.973 45.6658 150.973C45.5586 150.973 45.4717 150.919 45.4717 150.853Z" fill="#262338"/>
<path d="M37.7085 150.853V118.843C37.7085 118.777 37.7954 118.723 37.9026 118.723C38.0097 118.723 38.0966 118.777 38.0966 118.843V150.853C38.0966 150.919 38.0097 150.973 37.9026 150.973C37.7954 150.973 37.7085 150.919 37.7085 150.853Z" fill="#262338"/>
<path d="M29.5576 158.982V118.874C29.5686 118.83 29.5937 118.792 29.6288 118.765C29.6639 118.737 29.7072 118.723 29.7517 118.723C29.7962 118.723 29.8394 118.737 29.8746 118.765C29.9097 118.792 29.9347 118.83 29.9458 118.874V158.982C29.9347 159.025 29.9097 159.063 29.8746 159.09C29.8394 159.118 29.7962 159.133 29.7517 159.133C29.7072 159.133 29.6639 159.118 29.6288 159.09C29.5937 159.063 29.5686 159.025 29.5576 158.982Z" fill="#262338"/>
<path d="M21.4067 158.982V118.874C21.4177 118.83 21.4428 118.792 21.4779 118.765C21.5131 118.737 21.5563 118.723 21.6008 118.723C21.6453 118.723 21.6885 118.737 21.7237 118.765C21.7588 118.792 21.7839 118.83 21.7949 118.874V158.982C21.7839 159.025 21.7588 159.063 21.7237 159.09C21.6885 159.118 21.6453 159.133 21.6008 159.133C21.5563 159.133 21.5131 159.118 21.4779 159.09C21.4428 159.063 21.4177 159.025 21.4067 158.982Z" fill="#262338"/>
<path d="M15.8249 159.216C15.7734 159.217 15.724 159.196 15.6875 159.16C15.651 159.124 15.6305 159.074 15.6304 159.023C15.6303 158.971 15.6506 158.922 15.6869 158.885C15.7232 158.849 15.7725 158.828 15.824 158.828L35.5731 158.742C35.6242 158.743 35.673 158.764 35.7092 158.8C35.7455 158.836 35.7666 158.885 35.7681 158.936C35.7682 158.961 35.7633 158.986 35.7536 159.01C35.7439 159.034 35.7297 159.055 35.7118 159.073C35.6939 159.091 35.6725 159.106 35.649 159.116C35.6255 159.126 35.6003 159.131 35.5748 159.131L15.8257 159.216H15.8249Z" fill="#262338"/>
<path d="M30.2635 110.404C30.2121 110.404 30.1627 110.383 30.1263 110.347C30.0899 110.31 30.0694 110.261 30.0693 110.21C30.0693 110.158 30.0897 110.109 30.1261 110.072C30.1625 110.036 30.2118 110.015 30.2633 110.015L57.962 109.98H57.9623C58.0138 109.98 58.0632 110.001 58.0996 110.037C58.136 110.074 58.1565 110.123 58.1565 110.175C58.1566 110.226 58.1362 110.276 58.0998 110.312C58.0634 110.348 58.0141 110.369 57.9626 110.369L30.2638 110.404H30.2635Z" fill="#262338"/>
<path d="M16.3839 138.93C17.4389 138.93 18.2941 138.074 18.2941 137.018C18.2941 135.962 17.4389 135.105 16.3839 135.105C15.3289 135.105 14.4736 135.962 14.4736 137.018C14.4736 138.074 15.3289 138.93 16.3839 138.93Z" fill="#316EED"/>
<path d="M49.2557 107.807H38.97C38.7384 107.807 38.5163 107.715 38.3525 107.551C38.1887 107.387 38.0967 107.165 38.0967 106.933C38.0967 106.701 38.1887 106.479 38.3525 106.315C38.5163 106.151 38.7384 106.059 38.97 106.059H49.2557C49.4873 106.059 49.7095 106.151 49.8733 106.315C50.037 106.479 50.129 106.701 50.129 106.933C50.129 107.165 50.037 107.387 49.8733 107.551C49.7095 107.715 49.4873 107.807 49.2557 107.807Z" fill="#262338"/>
<path d="M81.6529 100.383C81.23 100.383 80.8166 100.257 80.4649 100.022C80.1133 99.7866 79.8393 99.4523 79.6774 99.0612C79.5156 98.6701 79.4732 98.2397 79.5557 97.8245C79.6382 97.4093 79.8419 97.0279 80.1409 96.7285C80.4399 96.4291 80.8209 96.2253 81.2357 96.1427C81.6505 96.0601 82.0804 96.1025 82.4711 96.2645C82.8618 96.4265 83.1958 96.7009 83.4307 97.0529C83.6657 97.4049 83.7911 97.8187 83.7911 98.2421C83.7911 98.8098 83.5658 99.3542 83.1648 99.7556C82.7638 100.157 82.2199 100.383 81.6529 100.383Z" fill="#D9DBE9"/>
<path d="M16 61C18.2091 61 20 59.2091 20 57C20 54.7909 18.2091 53 16 53C13.7909 53 12 54.7909 12 57C12 59.2091 13.7909 61 16 61Z" fill="#262338"/>
<path d="M125.5 147C126.881 147 128 145.881 128 144.5C128 143.119 126.881 142 125.5 142C124.119 142 123 143.119 123 144.5C123 145.881 124.119 147 125.5 147Z" fill="#316EED"/>
<path d="M109.358 119.358H103V113H109.358V119.358ZM103.489 118.869H108.869V113.489H103.489L103.489 118.869Z" fill="#262338"/>
<path d="M47 81H43V77H47V81ZM43.3077 80.6923H46.6923V77.3077H43.3077L43.3077 80.6923Z" fill="#262338"/>
<path d="M171.336 136.986L167 132.336L171.649 128L175.986 132.649L171.336 136.986ZM167.691 132.361L171.361 136.295L175.295 132.625L171.625 128.691L167.691 132.361Z" fill="#262338"/>
<path d="M69.8956 49L67 45.8956L70.1044 43L73 46.1044L69.8956 49ZM67.4615 45.9116L69.9116 48.5385L72.5385 46.0884L70.0883 43.4615L67.4615 45.9116Z" fill="#262338"/>
<path d="M160.19 172.293C158.934 176.935 154.633 179.81 154.633 179.81C154.633 179.81 152.368 175.159 153.623 170.517C154.879 165.875 159.18 163 159.18 163C159.18 163 161.446 167.651 160.19 172.293Z" fill="#316EED"/>
<path d="M148.766 172.293C150.022 176.935 154.323 179.81 154.323 179.81C154.323 179.81 156.588 175.159 155.332 170.517C154.077 165.875 149.776 163 149.776 163C149.776 163 147.51 167.651 148.766 172.293Z" fill="#316EED"/>
<path d="M150.611 171.296C154.057 174.651 154.478 179.807 154.478 179.807C154.478 179.807 149.312 179.525 145.867 176.171C142.421 172.816 142 167.66 142 167.66C142 167.66 147.166 167.942 150.611 171.296Z" fill="#262338"/>
<path d="M158.344 171.296C154.899 174.651 154.478 179.807 154.478 179.807C154.478 179.807 159.644 179.525 163.089 176.171C166.535 172.816 166.956 167.66 166.956 167.66C166.956 167.66 161.79 167.942 158.344 171.296Z" fill="#262338"/>
</svg>
