<svg width="188" height="188" viewBox="0 0 188 188" fill="none" xmlns="http://www.w3.org/2000/svg">
<path d="M22.791 61.2612L23.1473 61.0569L22.8022 60.8343L21.9932 60.3121L21.9931 60.3121L21.184 59.7899L20.8093 59.5481L20.7985 59.9939L20.7743 60.994L20.7501 61.9939L20.7393 62.4377L21.1244 62.2169L21.9577 61.739L21.9577 61.739L22.791 61.2612Z" fill="#262338" stroke="#262338" stroke-width="0.5"/>
<path d="M55.913 63.2344L56.3137 63.3831L56.2469 62.9609L55.9304 60.9609L55.9304 60.9609L55.6139 58.9609L55.5491 58.5518L55.2173 58.7997L53.5338 60.0576L53.5338 60.0576L51.8504 61.3153L51.4824 61.5902L51.913 61.75L53.9131 62.4921L53.9131 62.4921L55.913 63.2344Z" stroke="#262338" stroke-width="0.5"/>
<path d="M152.913 101.234L153.314 101.383L153.247 100.961L152.851 98.4609L152.851 98.4609L152.456 95.9609L152.391 95.5518L152.059 95.7997L149.955 97.372L149.955 97.372L147.85 98.9442L147.482 99.2191L147.913 99.3789L150.413 100.307L150.413 100.307L152.913 101.234Z" stroke="#262338" stroke-width="0.5"/>
<path d="M12.237 96.2307L12.642 96.3998L12.5809 95.9652L12.1589 92.9652L12.1589 92.9652L11.7368 89.9652L11.6739 89.5182L11.3284 89.8086L9.08377 91.6954L9.08376 91.6954L6.83914 93.582L6.52503 93.846L6.90369 94.0041L9.57041 95.1173L9.57043 95.1173L12.237 96.2307Z" stroke="#262338" stroke-width="0.5"/>
<path d="M127.634 83.2552L127.946 83.0565L127.646 82.8411L126.918 82.319L126.918 82.319L126.189 81.7968L125.804 81.5206L125.794 81.9945L125.772 82.9946L125.75 83.9945L125.74 84.4622L126.134 84.2108L126.884 83.733L126.884 83.733L127.634 83.2552Z" fill="#316EED" stroke="#316EED" stroke-width="0.5"/>
<path d="M174.065 76.6604L174.108 76.2192L173.71 76.4082L172.341 77.0598L172.341 77.0598L170.972 77.7114L170.587 77.8948L170.936 78.1434L172.159 79.0141L173.381 79.8847L173.731 80.1337L173.772 79.7049L173.919 78.1827L173.919 78.1827L174.065 76.6604Z" stroke="#262338" stroke-width="0.5"/>
<path d="M113.136 182.173L47.9619 182.391C30.6712 177.144 16.5049 158.921 16.4153 131.598C16.3979 127.482 16.7058 123.371 17.336 119.305L69.8311 107.394L110.328 98.207C113.312 100.906 116.093 103.825 118.646 106.942L79.9223 127.592L61.6543 137.333L82.182 130.181L124.788 115.337C127.445 119.44 129.813 123.726 131.873 128.165L119.018 141.582L133.56 131.968C133.622 132.115 133.684 132.262 133.746 132.41C142.962 154.506 131.527 182.112 113.136 182.173Z" fill="#EFF0F6"/>
<path d="M102.426 92.026C92.5698 94.8846 80.4525 98.4964 67.994 102.25C49.9807 107.68 31.2549 113.41 17.6219 117.598L17.6308 117.549C18.1348 114.61 19.3195 111.833 21.0884 109.444C31.1873 96.1838 44.0466 86.9205 58.3585 83.4804H58.3597C62.3843 82.5109 66.5062 82.0142 70.6436 82.0003C82.0302 81.9622 92.8157 85.5689 102.426 92.026Z" fill="#EFF0F6"/>
<path d="M66.1595 187.672C93.9548 187.672 116.487 184.779 116.487 181.211C116.487 177.643 93.9548 174.75 66.1595 174.75C38.3642 174.75 15.8316 177.643 15.8316 181.211C15.8316 184.779 38.3642 187.672 66.1595 187.672Z" fill="#262338"/>
<path d="M33.6746 173.709C33.6746 177.895 31.2101 179.357 28.1696 179.357C28.0992 179.357 28.0289 179.357 27.9587 179.355C27.8178 179.352 27.6783 179.345 27.5404 179.336C24.7965 179.14 22.6647 177.602 22.6647 173.709C22.6647 169.679 27.7638 164.594 28.1468 164.218L28.1475 164.217C28.1622 164.202 28.1696 164.195 28.1696 164.195C28.1696 164.195 33.6746 169.522 33.6746 173.709Z" fill="#316EED"/>
<path d="M27.969 178.717L29.9824 175.876L27.964 179.029L27.9586 179.355C27.8178 179.352 27.6782 179.345 27.5404 179.336L27.7574 175.147L27.7557 175.114L27.7594 175.108L27.7799 174.712L25.7564 171.552L27.7863 174.416L27.791 174.5L27.955 171.335L26.2226 168.069L27.9761 170.779L28.1468 164.218L28.1475 164.195V164.217L28.119 169.391L29.8436 167.34L28.1119 169.837L28.0663 172.671L29.6766 169.951L28.0596 173.088L28.0341 174.663L30.3719 170.878L28.0254 175.213L27.969 178.717Z" fill="#3F3D56"/>
<path d="M131.051 170.848C146.595 170.848 159.196 158.122 159.196 142.424C159.196 126.726 146.595 114 131.051 114C115.506 114 102.905 126.726 102.905 142.424C102.905 158.122 115.506 170.848 131.051 170.848Z" fill="#316EED"/>
<path opacity="0.2" d="M131.051 163.169C126.298 163.169 121.692 161.504 118.018 158.46C114.344 155.415 111.829 151.177 110.902 146.47C109.975 141.762 110.693 136.875 112.933 132.642C115.174 128.409 118.798 125.092 123.189 123.255C127.58 121.418 132.466 121.176 137.014 122.569C141.563 123.962 145.492 126.905 148.132 130.896C150.773 134.887 151.961 139.679 151.495 144.456C151.03 149.233 148.938 153.698 145.577 157.092C143.674 159.025 141.41 160.557 138.917 161.6C136.423 162.643 133.75 163.176 131.051 163.169ZM131.051 122.955C120.422 122.955 111.774 131.688 111.774 142.422C111.774 153.156 120.422 161.889 131.051 161.889C141.68 161.889 150.327 153.156 150.327 142.422C150.327 131.688 141.68 122.955 131.051 122.955Z" fill="black"/>
<path d="M131.051 162.53C142.047 162.53 150.961 153.528 150.961 142.423C150.961 131.319 142.047 122.316 131.051 122.316C120.055 122.316 111.141 131.319 111.141 142.423C111.141 153.528 120.055 162.53 131.051 162.53Z" fill="#4E4B66"/>
<path d="M116.244 134.384C116.093 134.085 116.002 133.76 115.976 133.425C115.949 133.091 115.989 132.755 116.091 132.436C116.194 132.117 116.358 131.821 116.573 131.566C116.789 131.311 117.052 131.102 117.348 130.95C117.644 130.798 117.967 130.706 118.298 130.68C118.629 130.653 118.962 130.693 119.277 130.797C119.593 130.901 119.885 131.067 120.138 131.285C120.39 131.503 120.597 131.769 120.748 132.068L126.373 143.223C126.524 143.522 126.615 143.848 126.641 144.182C126.667 144.516 126.628 144.853 126.526 145.171C126.423 145.49 126.259 145.786 126.044 146.041C125.828 146.296 125.565 146.505 125.269 146.658C124.973 146.81 124.65 146.902 124.319 146.928C123.988 146.954 123.655 146.914 123.34 146.81C123.024 146.706 122.731 146.54 122.479 146.322C122.227 146.104 122.02 145.838 121.869 145.539L116.244 134.384Z" fill="#D9DBE9"/>
<path opacity="0.2" d="M116.872 135.628L116.612 135.113C117.908 134.096 119.429 133.348 121.115 132.797L121.375 133.312C119.55 133.696 117.997 134.406 116.872 135.628Z" fill="black"/>
<path opacity="0.2" d="M118.083 138.03L117.823 137.515C119.119 136.498 120.641 135.751 122.327 135.199L122.586 135.714C120.761 136.098 119.209 136.808 118.083 138.03Z" fill="black"/>
<path opacity="0.2" d="M119.295 140.432L119.035 139.918C120.331 138.901 121.852 138.153 123.538 137.602L123.798 138.116C121.973 138.5 120.42 139.21 119.295 140.432Z" fill="black"/>
<path opacity="0.2" d="M120.506 142.839L120.247 142.324C121.542 141.307 123.064 140.559 124.75 140.008L125.01 140.523C123.185 140.906 121.632 141.617 120.506 142.839Z" fill="black"/>
<path opacity="0.2" d="M121.718 145.237L121.458 144.722C122.754 143.706 124.275 142.958 125.962 142.406L126.221 142.921C124.396 143.305 122.844 144.015 121.718 145.237Z" fill="black"/>
<path d="M112.024 138.56C111.873 138.261 111.782 137.935 111.756 137.601C111.73 137.267 111.769 136.93 111.871 136.612C111.974 136.293 112.138 135.997 112.353 135.742C112.569 135.487 112.832 135.278 113.128 135.126C113.424 134.973 113.747 134.882 114.078 134.855C114.409 134.829 114.741 134.869 115.057 134.973C115.373 135.077 115.665 135.243 115.918 135.461C116.17 135.679 116.377 135.945 116.527 136.244L122.153 147.399C122.456 148.002 122.51 148.702 122.302 149.345C122.095 149.988 121.643 150.521 121.046 150.828C120.45 151.135 119.757 151.19 119.12 150.982C118.483 150.773 117.954 150.317 117.649 149.715L112.024 138.56Z" fill="#D9DBE9"/>
<path opacity="0.2" d="M112.651 139.807L112.392 139.293C113.688 138.276 115.209 137.528 116.895 136.977L117.155 137.491C115.33 137.875 113.777 138.585 112.651 139.807Z" fill="black"/>
<path opacity="0.2" d="M113.863 142.206L113.603 141.691C114.899 140.674 116.421 139.927 118.107 139.375L118.366 139.89C116.541 140.274 114.989 140.984 113.863 142.206Z" fill="black"/>
<path opacity="0.2" d="M115.075 144.608L114.815 144.093C116.111 143.077 117.632 142.329 119.318 141.777L119.578 142.292C117.753 142.676 116.2 143.386 115.075 144.608Z" fill="black"/>
<path opacity="0.2" d="M116.286 147.014L116.027 146.5C117.322 145.483 118.844 144.735 120.53 144.184L120.79 144.698C118.965 145.082 117.412 145.792 116.286 147.014Z" fill="black"/>
<path opacity="0.2" d="M117.498 149.417L117.238 148.902C118.534 147.885 120.055 147.137 121.741 146.586L122.001 147.101C120.176 147.485 118.623 148.195 117.498 149.417Z" fill="black"/>
<path d="M144.354 143.064L144.372 143.064C144.978 143.07 145.571 142.89 146.075 142.55C146.578 142.209 146.968 141.723 147.194 141.156C147.659 139.97 147.893 138.704 147.884 137.429C147.852 132.031 143.504 127.603 138.159 127.528C135.883 127.496 133.666 128.26 131.883 129.69C130.101 131.12 128.863 133.129 128.38 135.375C127.896 137.621 128.197 139.968 129.231 142.016C130.265 144.064 131.968 145.688 134.052 146.613C134.603 146.859 135.214 146.932 135.806 146.821C136.399 146.71 136.944 146.421 137.371 145.991C138.286 145.062 139.374 144.325 140.573 143.823C141.771 143.321 143.057 143.063 144.354 143.064Z" fill="white"/>
<path d="M139.286 140.049C141.086 140.049 142.544 138.576 142.544 136.759C142.544 134.942 141.086 133.469 139.286 133.469C137.487 133.469 136.028 134.942 136.028 136.759C136.028 138.576 137.487 140.049 139.286 140.049Z" fill="#A0A3BD"/>
<path d="M132.206 136.388C132.418 136.388 132.589 136.215 132.589 136.001C132.589 135.787 132.418 135.613 132.206 135.613C131.994 135.613 131.822 135.787 131.822 136.001C131.822 136.215 131.994 136.388 132.206 136.388Z" fill="#3F3D56"/>
<path d="M119.536 136.756C119.748 136.756 119.919 136.582 119.919 136.368C119.919 136.154 119.748 135.98 119.536 135.98C119.324 135.98 119.152 136.154 119.152 136.368C119.152 136.582 119.324 136.756 119.536 136.756Z" fill="#3F3D56"/>
<path d="M134.251 132.369C134.463 132.369 134.635 132.195 134.635 131.981C134.635 131.767 134.463 131.594 134.251 131.594C134.039 131.594 133.867 131.767 133.867 131.981C133.867 132.195 134.039 132.369 134.251 132.369Z" fill="#3F3D56"/>
<path d="M134.24 143.541C134.452 143.541 134.624 143.367 134.624 143.153C134.624 142.939 134.452 142.766 134.24 142.766C134.028 142.766 133.856 142.939 133.856 143.153C133.856 143.367 134.028 143.541 134.24 143.541Z" fill="#3F3D56"/>
<path d="M141.842 131.568C142.054 131.568 142.226 131.395 142.226 131.181C142.226 130.967 142.054 130.793 141.842 130.793C141.63 130.793 141.458 130.967 141.458 131.181C141.458 131.395 141.63 131.568 141.842 131.568Z" fill="#3F3D56"/>
<path d="M117.045 142.174C117.257 142.174 117.429 142 117.429 141.786C117.429 141.572 117.257 141.398 117.045 141.398C116.833 141.398 116.661 141.572 116.661 141.786C116.661 142 116.833 142.174 117.045 142.174Z" fill="#3F3D56"/>
<path d="M119.851 147.748C120.063 147.748 120.234 147.574 120.234 147.36C120.234 147.146 120.063 146.973 119.851 146.973C119.639 146.973 119.467 147.146 119.467 147.36C119.467 147.574 119.639 147.748 119.851 147.748Z" fill="#3F3D56"/>
<path d="M137.476 149.554C138.276 149.554 138.924 148.899 138.924 148.091C138.924 147.284 138.276 146.629 137.476 146.629C136.677 146.629 136.028 147.284 136.028 148.091C136.028 148.899 136.677 149.554 137.476 149.554Z" fill="#D9DBE9"/>
<path opacity="0.2" d="M138.562 148.18C138.562 148.471 138.448 148.75 138.244 148.955C138.041 149.161 137.764 149.276 137.476 149.276C137.188 149.276 136.912 149.161 136.708 148.955C136.505 148.75 136.39 148.471 136.39 148.18" fill="black"/>
<path opacity="0.2" d="M136.39 148.003C136.39 147.712 136.505 147.433 136.708 147.227C136.912 147.022 137.188 146.906 137.476 146.906C137.764 146.906 138.041 147.022 138.244 147.227C138.448 147.433 138.562 147.712 138.562 148.003" fill="black"/>
<path d="M136.933 147.727C136.983 147.727 137.024 147.666 137.024 147.59C137.024 147.515 136.983 147.453 136.933 147.453C136.883 147.453 136.843 147.515 136.843 147.59C136.843 147.666 136.883 147.727 136.933 147.727Z" fill="#D9DBE9"/>
<path d="M137.476 147.54C137.526 147.54 137.567 147.478 137.567 147.403C137.567 147.327 137.526 147.266 137.476 147.266C137.426 147.266 137.386 147.327 137.386 147.403C137.386 147.478 137.426 147.54 137.476 147.54Z" fill="#D9DBE9"/>
<path d="M137.476 148.731C137.526 148.731 137.567 148.67 137.567 148.594C137.567 148.518 137.526 148.457 137.476 148.457C137.426 148.457 137.386 148.518 137.386 148.594C137.386 148.67 137.426 148.731 137.476 148.731Z" fill="#D9DBE9"/>
<path d="M138.019 148.001C138.069 148.001 138.11 147.939 138.11 147.864C138.11 147.788 138.069 147.727 138.019 147.727C137.969 147.727 137.929 147.788 137.929 147.864C137.929 147.939 137.969 148.001 138.019 148.001Z" fill="#D9DBE9"/>
<path d="M137.929 149.005C137.979 149.005 138.019 148.943 138.019 148.868C138.019 148.792 137.979 148.73 137.929 148.73C137.879 148.73 137.838 148.792 137.838 148.868C137.838 148.943 137.879 149.005 137.929 149.005Z" fill="#D9DBE9"/>
<path d="M136.843 148.548C136.893 148.548 136.933 148.486 136.933 148.411C136.933 148.335 136.893 148.273 136.843 148.273C136.793 148.273 136.752 148.335 136.752 148.411C136.752 148.486 136.793 148.548 136.843 148.548Z" fill="#D9DBE9"/>
<path d="M140.372 145.624C141.172 145.624 141.82 144.969 141.82 144.162C141.82 143.354 141.172 142.699 140.372 142.699C139.573 142.699 138.924 143.354 138.924 144.162C138.924 144.969 139.573 145.624 140.372 145.624Z" fill="#D9DBE9"/>
<path opacity="0.2" d="M141.458 144.254C141.458 144.545 141.344 144.824 141.14 145.029C140.937 145.235 140.66 145.351 140.372 145.351C140.084 145.351 139.808 145.235 139.604 145.029C139.401 144.824 139.286 144.545 139.286 144.254" fill="black"/>
<path opacity="0.2" d="M139.286 144.069C139.286 143.779 139.401 143.5 139.604 143.294C139.808 143.088 140.084 142.973 140.372 142.973C140.66 142.973 140.937 143.088 141.14 143.294C141.344 143.5 141.458 143.779 141.458 144.069" fill="black"/>
<path d="M139.829 143.794C139.879 143.794 139.92 143.732 139.92 143.656C139.92 143.581 139.879 143.519 139.829 143.519C139.779 143.519 139.739 143.581 139.739 143.656C139.739 143.732 139.779 143.794 139.829 143.794Z" fill="#D9DBE9"/>
<path d="M140.372 143.61C140.422 143.61 140.463 143.549 140.463 143.473C140.463 143.397 140.422 143.336 140.372 143.336C140.322 143.336 140.282 143.397 140.282 143.473C140.282 143.549 140.322 143.61 140.372 143.61Z" fill="#D9DBE9"/>
<path d="M140.372 144.802C140.422 144.802 140.463 144.74 140.463 144.664C140.463 144.589 140.422 144.527 140.372 144.527C140.322 144.527 140.282 144.589 140.282 144.664C140.282 144.74 140.322 144.802 140.372 144.802Z" fill="#D9DBE9"/>
<path d="M140.915 144.071C140.965 144.071 141.006 144.01 141.006 143.934C141.006 143.858 140.965 143.797 140.915 143.797C140.865 143.797 140.825 143.858 140.825 143.934C140.825 144.01 140.865 144.071 140.915 144.071Z" fill="#D9DBE9"/>
<path d="M140.825 145.071C140.875 145.071 140.915 145.01 140.915 144.934C140.915 144.858 140.875 144.797 140.825 144.797C140.775 144.797 140.734 144.858 140.734 144.934C140.734 145.01 140.775 145.071 140.825 145.071Z" fill="#D9DBE9"/>
<path d="M139.739 144.618C139.789 144.618 139.829 144.557 139.829 144.481C139.829 144.405 139.789 144.344 139.739 144.344C139.689 144.344 139.648 144.405 139.648 144.481C139.648 144.557 139.689 144.618 139.739 144.618Z" fill="#D9DBE9"/>
<path d="M143.268 147.632C144.068 147.632 144.716 146.977 144.716 146.169C144.716 145.362 144.068 144.707 143.268 144.707C142.469 144.707 141.82 145.362 141.82 146.169C141.82 146.977 142.469 147.632 143.268 147.632Z" fill="#316EED"/>
<path opacity="0.2" d="M144.354 146.262C144.354 146.553 144.24 146.832 144.036 147.037C143.833 147.243 143.556 147.358 143.268 147.358C142.98 147.358 142.704 147.243 142.5 147.037C142.297 146.832 142.182 146.553 142.182 146.262" fill="black"/>
<path opacity="0.2" d="M142.182 146.077C142.182 145.786 142.297 145.507 142.5 145.302C142.704 145.096 142.98 144.98 143.268 144.98C143.556 144.98 143.833 145.096 144.036 145.302C144.24 145.507 144.354 145.786 144.354 146.077" fill="black"/>
<path d="M142.725 145.805C142.775 145.805 142.816 145.744 142.816 145.668C142.816 145.593 142.775 145.531 142.725 145.531C142.675 145.531 142.635 145.593 142.635 145.668C142.635 145.744 142.675 145.805 142.725 145.805Z" fill="#316EED"/>
<path d="M143.268 145.622C143.318 145.622 143.359 145.56 143.359 145.485C143.359 145.409 143.318 145.348 143.268 145.348C143.218 145.348 143.178 145.409 143.178 145.485C143.178 145.56 143.218 145.622 143.268 145.622Z" fill="#316EED"/>
<path d="M143.268 146.809C143.318 146.809 143.359 146.748 143.359 146.672C143.359 146.597 143.318 146.535 143.268 146.535C143.218 146.535 143.178 146.597 143.178 146.672C143.178 146.748 143.218 146.809 143.268 146.809Z" fill="#316EED"/>
<path d="M143.811 146.079C143.861 146.079 143.902 146.017 143.902 145.942C143.902 145.866 143.861 145.805 143.811 145.805C143.761 145.805 143.721 145.866 143.721 145.942C143.721 146.017 143.761 146.079 143.811 146.079Z" fill="#316EED"/>
<path d="M143.721 147.087C143.771 147.087 143.811 147.025 143.811 146.95C143.811 146.874 143.771 146.812 143.721 146.812C143.671 146.812 143.63 146.874 143.63 146.95C143.63 147.025 143.671 147.087 143.721 147.087Z" fill="#316EED"/>
<path d="M142.635 146.626C142.685 146.626 142.725 146.564 142.725 146.489C142.725 146.413 142.685 146.352 142.635 146.352C142.585 146.352 142.544 146.413 142.544 146.489C142.544 146.564 142.585 146.626 142.635 146.626Z" fill="#316EED"/>
<path d="M136.028 147.815C136.828 147.815 137.476 147.161 137.476 146.353C137.476 145.545 136.828 144.891 136.028 144.891C135.229 144.891 134.58 145.545 134.58 146.353C134.58 147.161 135.229 147.815 136.028 147.815Z" fill="#316EED"/>
<path opacity="0.2" d="M137.114 146.445C137.114 146.736 137 147.015 136.796 147.221C136.593 147.426 136.316 147.542 136.028 147.542C135.74 147.542 135.464 147.426 135.26 147.221C135.057 147.015 134.942 146.736 134.942 146.445" fill="black"/>
<path opacity="0.2" d="M134.942 146.261C134.942 145.97 135.057 145.691 135.26 145.485C135.464 145.28 135.74 145.164 136.028 145.164C136.316 145.164 136.593 145.28 136.796 145.485C137 145.691 137.114 145.97 137.114 146.261" fill="black"/>
<path d="M135.485 145.989C135.535 145.989 135.576 145.928 135.576 145.852C135.576 145.776 135.535 145.715 135.485 145.715C135.435 145.715 135.395 145.776 135.395 145.852C135.395 145.928 135.435 145.989 135.485 145.989Z" fill="#316EED"/>
<path d="M136.028 145.805C136.078 145.805 136.119 145.744 136.119 145.668C136.119 145.593 136.078 145.531 136.028 145.531C135.978 145.531 135.938 145.593 135.938 145.668C135.938 145.744 135.978 145.805 136.028 145.805Z" fill="#316EED"/>
<path d="M136.028 146.997C136.078 146.997 136.119 146.935 136.119 146.86C136.119 146.784 136.078 146.723 136.028 146.723C135.978 146.723 135.938 146.784 135.938 146.86C135.938 146.935 135.978 146.997 136.028 146.997Z" fill="#316EED"/>
<path d="M136.571 146.262C136.621 146.262 136.662 146.201 136.662 146.125C136.662 146.05 136.621 145.988 136.571 145.988C136.521 145.988 136.481 146.05 136.481 146.125C136.481 146.201 136.521 146.262 136.571 146.262Z" fill="#316EED"/>
<path d="M136.481 147.266C136.531 147.266 136.571 147.205 136.571 147.129C136.571 147.054 136.531 146.992 136.481 146.992C136.431 146.992 136.39 147.054 136.39 147.129C136.39 147.205 136.431 147.266 136.481 147.266Z" fill="#316EED"/>
<path d="M135.395 146.809C135.445 146.809 135.485 146.748 135.485 146.672C135.485 146.597 135.445 146.535 135.395 146.535C135.345 146.535 135.304 146.597 135.304 146.672C135.304 146.748 135.345 146.809 135.395 146.809Z" fill="#316EED"/>
<path d="M139.286 148.456C140.086 148.456 140.734 147.801 140.734 146.994C140.734 146.186 140.086 145.531 139.286 145.531C138.486 145.531 137.838 146.186 137.838 146.994C137.838 147.801 138.486 148.456 139.286 148.456Z" fill="#316EED"/>
<path opacity="0.2" d="M140.372 147.086C140.372 147.23 140.344 147.373 140.29 147.506C140.235 147.639 140.155 147.76 140.054 147.861C139.953 147.963 139.834 148.044 139.702 148.099C139.57 148.154 139.429 148.183 139.286 148.183C139.144 148.183 139.002 148.154 138.871 148.099C138.739 148.044 138.619 147.963 138.518 147.861C138.418 147.76 138.338 147.639 138.283 147.506C138.228 147.373 138.2 147.23 138.2 147.086" fill="black"/>
<path opacity="0.2" d="M138.2 146.901C138.2 146.757 138.228 146.615 138.283 146.482C138.338 146.349 138.418 146.228 138.518 146.126C138.619 146.024 138.739 145.943 138.871 145.888C139.002 145.833 139.144 145.805 139.286 145.805C139.429 145.805 139.57 145.833 139.702 145.888C139.834 145.943 139.953 146.024 140.054 146.126C140.155 146.228 140.235 146.349 140.29 146.482C140.344 146.615 140.372 146.757 140.372 146.901" fill="black"/>
<path d="M138.743 146.626C138.793 146.626 138.834 146.564 138.834 146.489C138.834 146.413 138.793 146.352 138.743 146.352C138.693 146.352 138.653 146.413 138.653 146.489C138.653 146.564 138.693 146.626 138.743 146.626Z" fill="#316EED"/>
<path d="M139.286 146.446C139.336 146.446 139.377 146.385 139.377 146.309C139.377 146.233 139.336 146.172 139.286 146.172C139.236 146.172 139.196 146.233 139.196 146.309C139.196 146.385 139.236 146.446 139.286 146.446Z" fill="#316EED"/>
<path d="M139.286 147.634C139.336 147.634 139.377 147.572 139.377 147.496C139.377 147.421 139.336 147.359 139.286 147.359C139.236 147.359 139.196 147.421 139.196 147.496C139.196 147.572 139.236 147.634 139.286 147.634Z" fill="#316EED"/>
<path d="M139.829 146.903C139.879 146.903 139.92 146.842 139.92 146.766C139.92 146.69 139.879 146.629 139.829 146.629C139.779 146.629 139.739 146.69 139.739 146.766C139.739 146.842 139.779 146.903 139.829 146.903Z" fill="#316EED"/>
<path d="M139.739 147.907C139.789 147.907 139.829 147.846 139.829 147.77C139.829 147.694 139.789 147.633 139.739 147.633C139.689 147.633 139.648 147.694 139.648 147.77C139.648 147.846 139.689 147.907 139.739 147.907Z" fill="#316EED"/>
<path d="M138.653 147.45C138.703 147.45 138.743 147.389 138.743 147.313C138.743 147.237 138.703 147.176 138.653 147.176C138.603 147.176 138.562 147.237 138.562 147.313C138.562 147.389 138.603 147.45 138.653 147.45Z" fill="#316EED"/>
<path d="M141.549 150.011C142.349 150.011 142.997 149.356 142.997 148.548C142.997 147.741 142.349 147.086 141.549 147.086C140.749 147.086 140.101 147.741 140.101 148.548C140.101 149.356 140.749 150.011 141.549 150.011Z" fill="#D9DBE9"/>
<path opacity="0.2" d="M142.635 148.637C142.635 148.928 142.52 149.207 142.317 149.412C142.113 149.618 141.837 149.733 141.549 149.733C141.261 149.733 140.985 149.618 140.781 149.412C140.577 149.207 140.463 148.928 140.463 148.637" fill="black"/>
<path opacity="0.2" d="M140.463 148.456C140.463 148.165 140.577 147.886 140.781 147.681C140.985 147.475 141.261 147.359 141.549 147.359C141.837 147.359 142.113 147.475 142.317 147.681C142.52 147.886 142.635 148.165 142.635 148.456" fill="black"/>
<path d="M141.006 148.18C141.056 148.18 141.096 148.119 141.096 148.043C141.096 147.968 141.056 147.906 141.006 147.906C140.956 147.906 140.915 147.968 140.915 148.043C140.915 148.119 140.956 148.18 141.006 148.18Z" fill="#D9DBE9"/>
<path d="M141.549 148.001C141.599 148.001 141.639 147.939 141.639 147.864C141.639 147.788 141.599 147.727 141.549 147.727C141.499 147.727 141.458 147.788 141.458 147.864C141.458 147.939 141.499 148.001 141.549 148.001Z" fill="#D9DBE9"/>
<path d="M141.549 149.188C141.599 149.188 141.639 149.127 141.639 149.051C141.639 148.975 141.599 148.914 141.549 148.914C141.499 148.914 141.458 148.975 141.458 149.051C141.458 149.127 141.499 149.188 141.549 149.188Z" fill="#D9DBE9"/>
<path d="M142.092 148.454C142.142 148.454 142.182 148.392 142.182 148.317C142.182 148.241 142.142 148.18 142.092 148.18C142.042 148.18 142.001 148.241 142.001 148.317C142.001 148.392 142.042 148.454 142.092 148.454Z" fill="#D9DBE9"/>
<path d="M142.001 149.462C142.051 149.462 142.092 149.4 142.092 149.325C142.092 149.249 142.051 149.188 142.001 149.188C141.951 149.188 141.911 149.249 141.911 149.325C141.911 149.4 141.951 149.462 142.001 149.462Z" fill="#D9DBE9"/>
<path d="M140.915 149.005C140.965 149.005 141.006 148.943 141.006 148.868C141.006 148.792 140.965 148.73 140.915 148.73C140.865 148.73 140.825 148.792 140.825 148.868C140.825 148.943 140.865 149.005 140.915 149.005Z" fill="#D9DBE9"/>
<path d="M122.928 143.361C123.14 143.361 123.311 143.188 123.311 142.974C123.311 142.759 123.14 142.586 122.928 142.586C122.716 142.586 122.544 142.759 122.544 142.974C122.544 143.188 122.716 143.361 122.928 143.361Z" fill="#3F3D56"/>
<path d="M133.36 157.043L124.143 154.461L124.496 153.137L133.713 155.718L133.36 157.043Z" fill="#A0A3BD"/>
<path d="M132.009 156.6C128.852 157.21 125.61 157.21 122.453 156.6V155.227C125.617 155.756 128.845 155.756 132.009 155.227V156.6Z" fill="#A0A3BD"/>
<path d="M132.991 152.479C129.835 153.089 126.592 153.089 123.436 152.479V151.105C126.599 151.635 129.828 151.635 132.991 151.105V152.479Z" fill="#A0A3BD"/>
<path d="M136.296 154.127C133.139 154.737 129.897 154.737 126.74 154.127V152.754C129.904 153.283 133.132 153.283 136.296 152.754V154.127Z" fill="#A0A3BD"/>
<path d="M137.099 155.682C133.943 156.292 130.7 156.292 127.544 155.682V154.309C130.707 154.838 133.936 154.838 137.099 154.309V155.682Z" fill="#A0A3BD"/>
<path d="M139.902 157.718L130.474 159.317L130.255 157.963L139.683 156.363L139.902 157.718Z" fill="#A0A3BD"/>
<path d="M138.493 157.892C135.88 159.795 132.934 161.182 129.811 161.982L129.251 160.734C132.347 159.859 135.28 158.477 137.934 156.645L138.493 157.892Z" fill="#A0A3BD"/>
<path d="M137.708 153.728C135.094 155.631 132.148 157.018 129.025 157.818L128.466 156.57C131.562 155.695 134.495 154.313 137.149 152.48L137.708 153.728Z" fill="#A0A3BD"/>
<path d="M141.382 153.814C138.768 155.717 135.822 157.104 132.699 157.904L132.139 156.656C135.235 155.781 138.168 154.399 140.822 152.566L141.382 153.814Z" fill="#A0A3BD"/>
<path d="M142.746 154.88C140.132 156.783 137.186 158.171 134.063 158.97L133.504 157.723C136.6 156.847 139.533 155.466 142.186 153.633L142.746 154.88Z" fill="#A0A3BD"/>
<path d="M131.322 152.203H130.87V152.66H131.322V152.203Z" fill="white"/>
<path d="M132.68 160.156H132.227V160.613H132.68V160.156Z" fill="white"/>
<path d="M125.44 152.203H124.987V152.66H125.44V152.203Z" fill="white"/>
<path d="M135.938 157.871H135.485V158.328H135.938V157.871Z" fill="white"/>
<path d="M136.209 155.219H135.757V155.676H136.209V155.219Z" fill="white"/>
<path d="M128.745 153.969L128.221 153.609L128.017 153.912L128.542 154.271L128.745 153.969Z" fill="white"/>
<path d="M134.084 154.976L133.56 154.617L133.357 154.92L133.881 155.279L134.084 154.976Z" fill="white"/>
<path d="M127.568 156.711L127.044 156.352L126.841 156.654L127.365 157.013L127.568 156.711Z" fill="white"/>
<path d="M130.887 156.682L131.243 156.152L130.943 155.947L130.588 156.476L130.887 156.682Z" fill="white"/>
<path d="M133.331 157.322L133.686 156.793L133.387 156.588L133.031 157.117L133.331 157.322Z" fill="white"/>
<path d="M139.847 155.131L140.203 154.602L139.903 154.396L139.548 154.926L139.847 155.131Z" fill="white"/>
<path d="M91.3032 97.6094C91.3032 97.6094 90.7039 99.4912 89.7687 102.195C89.4663 103.073 89.1276 104.037 88.7624 105.052C88.2537 106.465 87.6934 107.977 87.1067 109.489C86.7457 110.419 86.375 111.348 86.0001 112.256C83.9848 117.121 81.8385 121.337 80.4322 121.396C77.2727 121.528 70.5048 100.179 69.7661 97.8205C69.7229 97.6826 69.7006 97.6094 69.7006 97.6094H91.3032Z" fill="#4E4B66"/>
<path opacity="0.1" d="M89.7688 102.195C89.4664 103.073 89.1277 104.037 88.7626 105.052L80.3933 97.6094H84.6121L89.7688 102.195Z" fill="#262338"/>
<path opacity="0.1" d="M87.1068 109.489C86.7459 110.419 86.3751 111.348 86.0002 112.256L69.7662 97.8205C69.723 97.6826 69.7007 97.6094 69.7007 97.6094H73.7481L87.1068 109.489Z" fill="#262338"/>
<path d="M80.8767 78.7004C79.8863 79.4926 78.3204 79.193 77.3686 80.0321C76.7176 80.606 76.5439 81.5874 76.7216 82.4415C76.8992 83.2956 77.3713 84.0534 77.8462 84.7825C78.1739 85.2858 78.5139 85.7929 78.9745 86.1756C79.6183 86.7107 80.4447 86.9598 81.2547 87.1599C83.0186 87.5954 84.8198 87.8591 86.6335 87.9473C87.4424 87.9865 88.3584 87.9473 88.9034 87.3424C89.2207 86.9902 89.3483 86.5075 89.4413 86.0406C89.5868 85.3104 89.6676 84.5241 89.367 83.8439C89.1199 83.2848 88.6444 82.8657 88.1629 82.4936C86.6526 81.3266 84.8739 80.3604 83.9522 78.6806C83.5858 78.0129 83.3598 77.2392 82.8045 76.7211C82.0807 76.0459 80.4701 75.7698 79.6179 76.2208C79.7495 76.524 81.4703 78.2255 80.8767 78.7004Z" fill="#316EED"/>
<path d="M72.5548 86.5717C72.2612 87.6 71.9907 88.688 72.2379 89.7286C72.5639 91.1006 73.7551 92.1281 75.0618 92.6276C76.3685 93.1271 77.7935 93.1854 79.1896 93.238L86.4997 93.5138C87.4184 93.5484 88.3547 93.5864 89.2181 93.9054C89.9297 94.1682 90.7755 94.6011 91.3688 94.125C91.6378 93.9091 91.7587 93.5596 91.8542 93.2262C92.1649 92.1413 92.3387 90.95 91.9209 89.9025C91.4421 88.7021 90.2614 87.9134 89.0356 87.5363C87.8097 87.1593 86.5115 87.1226 85.2378 86.9802C83.9458 86.8357 82.6683 86.5803 81.4192 86.2169C80.375 85.9129 79.317 85.5119 78.5446 84.7398C78.1268 84.3222 77.8104 83.8129 77.4166 83.3722C75.1606 80.8474 73.1097 84.6287 72.5548 86.5717Z" fill="#316EED"/>
<path d="M70.9484 91.2984C70.2374 91.6201 69.6207 92.1216 69.158 92.7546C68.6953 93.3876 68.4023 94.1305 68.3074 94.9114C68.2125 95.6924 68.3188 96.4848 68.6162 97.212C68.9136 97.9392 69.3918 98.5766 70.0047 99.0623C71.1178 99.9445 72.5744 100.251 73.9857 100.354C75.3638 100.454 76.7478 100.385 78.1277 100.316L90.3373 99.7055C91.053 99.6697 91.863 99.5865 92.2999 99.0129C92.6259 98.5849 92.6451 97.9944 92.5672 97.4601C92.2872 95.538 90.85 93.8363 89.0148 93.2538C88.3226 93.0341 87.5939 92.9646 86.8715 92.8963L81.6376 92.4017C80.9327 92.3351 80.2238 92.2678 79.5407 92.0803C77.4709 91.5121 75.6215 89.8532 73.4904 90.0988C72.0447 90.2655 70.8544 91.2876 69.8042 92.3047" fill="#316EED"/>
<path opacity="0.1" d="M77.7843 82.9727C77.7843 82.9727 79.4926 86.0874 88.2551 87.345L77.7843 82.9727Z" fill="black"/>
<path opacity="0.1" d="M72.9373 91.1289C72.9373 91.1289 76.1118 94.3716 89.2127 94.3716L72.9373 91.1289Z" fill="black"/>
<path d="M80.293 81.4224C80.7548 81.4224 81.1292 81.2963 81.1292 81.1409C81.1292 80.9854 80.7548 80.8594 80.293 80.8594C79.8311 80.8594 79.4567 80.9854 79.4567 81.1409C79.4567 81.2963 79.8311 81.4224 80.293 81.4224Z" fill="#3F3D56"/>
<path d="M83.0804 83.2544C83.5423 83.2544 83.9167 83.1284 83.9167 82.9729C83.9167 82.8174 83.5423 82.6914 83.0804 82.6914C82.6186 82.6914 82.2442 82.8174 82.2442 82.9729C82.2442 83.1284 82.6186 83.2544 83.0804 83.2544Z" fill="#3F3D56"/>
<path d="M86.286 85.2232C86.7478 85.2232 87.1222 85.0971 87.1222 84.9417C87.1222 84.7862 86.7478 84.6602 86.286 84.6602C85.8242 84.6602 85.4498 84.7862 85.4498 84.9417C85.4498 85.0971 85.8242 85.2232 86.286 85.2232Z" fill="#3F3D56"/>
<path d="M75.1363 86.063C75.5981 86.063 75.9725 85.937 75.9725 85.7815C75.9725 85.626 75.5981 85.5 75.1363 85.5C74.6744 85.5 74.3 85.626 74.3 85.7815C74.3 85.937 74.6744 86.063 75.1363 86.063Z" fill="#3F3D56"/>
<path d="M82.2442 88.7427C82.7061 88.7427 83.0805 88.6167 83.0805 88.4612C83.0805 88.3057 82.7061 88.1797 82.2442 88.1797C81.7824 88.1797 81.408 88.3057 81.408 88.4612C81.408 88.6167 81.7824 88.7427 82.2442 88.7427Z" fill="#3F3D56"/>
<path d="M72.2094 94.2271C72.6712 94.2271 73.0456 94.101 73.0456 93.9456C73.0456 93.7901 72.6712 93.6641 72.2094 93.6641C71.7476 93.6641 71.3732 93.7901 71.3732 93.9456C71.3732 94.101 71.7476 94.2271 72.2094 94.2271Z" fill="#3F3D56"/>
<path d="M77.5056 89.02C77.9674 89.02 78.3418 88.894 78.3418 88.7385C78.3418 88.5831 77.9674 88.457 77.5056 88.457C77.0438 88.457 76.6694 88.5831 76.6694 88.7385C76.6694 88.894 77.0438 89.02 77.5056 89.02Z" fill="#3F3D56"/>
<path d="M74.3001 96.3403C74.7619 96.3403 75.1363 96.2143 75.1363 96.0588C75.1363 95.9034 74.7619 95.7773 74.3001 95.7773C73.8383 95.7773 73.4639 95.9034 73.4639 96.0588C73.4639 96.2143 73.8383 96.3403 74.3001 96.3403Z" fill="#3F3D56"/>
<path d="M79.7355 95.0747C80.1974 95.0747 80.5718 94.9487 80.5718 94.7932C80.5718 94.6378 80.1974 94.5117 79.7355 94.5117C79.2737 94.5117 78.8993 94.6378 78.8993 94.7932C78.8993 94.9487 79.2737 95.0747 79.7355 95.0747Z" fill="#3F3D56"/>
<path d="M83.0107 101.831C83.511 101.831 83.9166 100.981 83.9166 99.9314C83.9166 98.882 83.511 98.0312 83.0107 98.0312C82.5104 98.0312 82.1048 98.882 82.1048 99.9314C82.1048 100.981 82.5104 101.831 83.0107 101.831Z" fill="#316EED"/>
<path d="M84.1257 102.535C84.626 102.535 85.0316 101.684 85.0316 100.634C85.0316 99.5851 84.626 98.7344 84.1257 98.7344C83.6254 98.7344 83.2198 99.5851 83.2198 100.634C83.2198 101.684 83.6254 102.535 84.1257 102.535Z" fill="#316EED"/>
<path d="M82.2669 118.955C82.2744 118.918 82.4622 118.019 83.445 116.708C84.3467 115.505 86.1203 113.716 89.4493 112.02C95.7559 108.807 97.1671 102.772 97.1806 102.711L97.3491 102.749C97.3457 102.765 96.9927 104.31 95.8567 106.233C94.349 108.781 92.1533 110.843 89.5271 112.176C83.2312 115.383 82.4434 118.954 82.4362 118.99L82.2669 118.955Z" fill="#262338"/>
<path d="M97.5031 102.064C98.1231 102.064 98.6257 101.557 98.6257 100.931C98.6257 100.304 98.1231 99.7969 97.5031 99.7969C96.8832 99.7969 96.3806 100.304 96.3806 100.931C96.3806 101.557 96.8832 102.064 97.5031 102.064Z" fill="#316EED"/>
<path d="M97.2812 107.564C97.9011 107.564 98.4037 107.057 98.4037 106.431C98.4037 105.804 97.9011 105.297 97.2812 105.297C96.6612 105.297 96.1586 105.804 96.1586 106.431C96.1586 107.057 96.6612 107.564 97.2812 107.564Z" fill="#262338"/>
<path d="M93.6293 107.951C94.2493 107.951 94.7519 107.443 94.7519 106.817C94.7519 106.191 94.2493 105.684 93.6293 105.684C93.0093 105.684 92.5067 106.191 92.5067 106.817C92.5067 107.443 93.0093 107.951 93.6293 107.951Z" fill="#316EED"/>
<path d="M94.1968 111.697C94.8168 111.697 95.3194 111.189 95.3194 110.563C95.3194 109.937 94.8168 109.43 94.1968 109.43C93.5769 109.43 93.0743 109.937 93.0743 110.563C93.0743 111.189 93.5769 111.697 94.1968 111.697Z" fill="#316EED"/>
<path d="M88.9449 111.771C89.5649 111.771 90.0675 111.264 90.0675 110.638C90.0675 110.011 89.5649 109.504 88.9449 109.504C88.3249 109.504 87.8223 110.011 87.8223 110.638C87.8223 111.264 88.3249 111.771 88.9449 111.771Z" fill="#262338"/>
<path d="M82.7361 119.456C82.7361 119.456 83.7918 116.639 87.6704 117.417L82.7361 119.456Z" fill="#262338"/>
<path d="M1.05907 175.091C1.40709 171.265 3.62599 167.435 7.18487 166.078C5.89053 170.046 6.02768 174.348 7.57205 178.224C8.17302 179.717 8.99533 181.313 8.52364 182.853C8.23017 183.81 7.46158 184.561 6.5911 185.042C5.72057 185.524 4.74532 185.772 3.78224 186.015L3.59645 186.181C1.94522 182.72 0.711046 178.916 1.05907 175.091Z" fill="#EFF0F6"/>
<path d="M7.22282 166.151C5.20275 168.59 3.99505 171.61 3.77126 174.782C3.71109 175.464 3.75772 176.151 3.90946 176.818C4.07807 177.463 4.41468 178.051 4.88432 178.521C5.31351 178.967 5.80373 179.374 6.11796 179.918C6.27472 180.199 6.3709 180.51 6.4002 180.831C6.4295 181.152 6.39125 181.476 6.28797 181.781C6.05021 182.548 5.55371 183.183 5.04681 183.787C4.48399 184.458 3.88888 185.145 3.66831 186.017C3.64158 186.123 3.48081 186.075 3.50749 185.969C3.89125 184.452 5.30892 183.552 5.9549 182.175C6.25632 181.533 6.36795 180.795 6.04532 180.138C5.7632 179.564 5.25803 179.144 4.8196 178.696C4.3548 178.245 4.00645 177.686 3.80498 177.067C3.62009 176.41 3.54732 175.726 3.58977 175.044C3.66109 173.507 3.97125 171.991 4.50889 170.551C5.11347 168.905 5.99248 167.375 7.1079 166.028C7.17697 165.944 7.29144 166.068 7.22282 166.151L7.22282 166.151Z" fill="white"/>
<path d="M3.78379 173.757C3.26195 173.647 2.79587 173.353 2.46879 172.927C2.14171 172.502 1.97494 171.974 1.99824 171.436C1.99939 171.414 2.00893 171.393 2.02484 171.378C2.04074 171.363 2.06178 171.355 2.08352 171.355C2.10526 171.356 2.126 171.365 2.14137 171.38C2.15674 171.396 2.16554 171.417 2.16592 171.439C2.1433 171.94 2.2987 172.432 2.60408 172.827C2.90946 173.223 3.34469 173.495 3.83122 173.594C3.93693 173.616 3.8889 173.778 3.7838 173.757H3.78379Z" fill="white"/>
<path d="M4.63728 178.324C5.55456 177.729 6.21635 176.808 6.49068 175.743C6.51778 175.637 6.67856 175.685 6.6515 175.791C6.36397 176.898 5.67335 177.856 4.71746 178.472C4.62631 178.531 4.54663 178.382 4.63729 178.324H4.63728Z" fill="white"/>
<path d="M5.27403 169.06C5.46714 169.145 5.67817 169.181 5.88815 169.163C6.09814 169.145 6.30051 169.075 6.47708 168.959C6.56745 168.899 6.64704 169.048 6.55726 169.108C6.36158 169.235 6.13799 169.312 5.90603 169.332C5.67408 169.352 5.44081 169.315 5.22661 169.222C5.20569 169.215 5.1882 169.201 5.17767 169.181C5.16714 169.162 5.16436 169.139 5.16991 169.117C5.1763 169.096 5.19082 169.078 5.21031 169.067C5.22981 169.056 5.25271 169.054 5.27403 169.06H5.27403Z" fill="white"/>
<path d="M18.3696 172.53C18.3142 172.569 18.2588 172.608 18.2034 172.648C17.4616 173.176 16.7635 173.764 16.116 174.406C16.0651 174.455 16.0143 174.505 15.965 174.555C14.4212 176.119 13.1783 177.958 12.2995 179.98C11.9505 180.785 11.6626 181.615 11.4384 182.464C11.1288 183.636 10.8855 184.932 10.2298 185.904C10.1625 186.007 10.089 186.105 10.0098 186.198L3.81098 186.399C3.79667 186.392 3.78233 186.387 3.76795 186.38L3.52081 186.399C3.52935 186.355 3.53915 186.309 3.54769 186.264C3.55253 186.238 3.55875 186.212 3.5636 186.186C3.56727 186.169 3.57101 186.152 3.57334 186.136C3.57454 186.13 3.57581 186.125 3.57705 186.12C3.57938 186.104 3.5832 186.09 3.58559 186.076C3.63968 185.818 3.69565 185.56 3.75352 185.302C3.75347 185.301 3.75347 185.301 3.75481 185.3C4.17711 183.331 4.82917 181.42 5.69732 179.606C5.72395 179.552 5.75047 179.497 5.77993 179.443C6.1831 178.64 6.65061 177.871 7.17779 177.145C7.46773 176.748 7.77737 176.366 8.10553 176.001C8.95525 175.059 9.9464 174.258 11.0427 173.627C13.2282 172.369 15.7877 171.831 18.1868 172.478C18.2481 172.495 18.3082 172.512 18.3696 172.53Z" fill="#EFF0F6"/>
<path d="M18.3581 172.608C15.291 173.328 12.5264 175.004 10.4568 177.401C10.0022 177.909 9.62966 178.486 9.353 179.111C9.10298 179.729 9.0213 180.403 9.11646 181.063C9.19293 181.68 9.34196 182.303 9.26847 182.929C9.22614 183.248 9.11739 183.555 8.94935 183.829C8.78131 184.104 8.55777 184.339 8.29339 184.52C7.64626 184.988 6.87124 185.193 6.10643 185.367C5.25726 185.56 4.37221 185.747 3.67624 186.309C3.59192 186.377 3.4922 186.241 3.5764 186.173C4.78726 185.195 6.45615 185.338 7.79236 184.632C8.41586 184.303 8.94484 183.781 9.07896 183.061C9.19625 182.43 9.04311 181.788 8.96033 181.163C8.85816 180.521 8.91339 179.862 9.1212 179.246C9.36546 178.609 9.71531 178.018 10.1558 177.5C11.129 176.316 12.2804 175.294 13.568 174.471C15.0323 173.524 16.6462 172.837 18.3399 172.44C18.4447 172.415 18.4622 172.584 18.3581 172.608V172.608Z" fill="white"/>
<path d="M11.0782 176.591C10.7272 176.186 10.5303 175.668 10.5226 175.129C10.5149 174.591 10.6969 174.067 11.0362 173.652C11.1052 173.568 11.2373 173.672 11.1683 173.756C10.8517 174.142 10.6821 174.63 10.6903 175.131C10.6985 175.633 10.8838 176.115 11.2128 176.49C11.2843 176.572 11.1492 176.672 11.0782 176.591V176.591Z" fill="white"/>
<path d="M9.03687 180.757C10.1236 180.84 11.2014 180.507 12.0554 179.823C12.14 179.755 12.2397 179.891 12.1553 179.959C11.2652 180.669 10.1429 181.014 9.01223 180.924C8.90447 180.916 8.92969 180.748 9.03687 180.757V180.757Z" fill="white"/>
<path d="M15.068 173.745C15.1714 173.93 15.3188 174.087 15.497 174.201C15.6752 174.314 15.8785 174.381 16.0887 174.396C16.1965 174.403 16.1712 174.571 16.064 174.563C15.8319 174.546 15.6074 174.472 15.4103 174.347C15.2132 174.222 15.0494 174.05 14.9333 173.846C14.9207 173.828 14.9156 173.805 14.9188 173.783C14.922 173.761 14.9334 173.741 14.9507 173.727C14.9686 173.714 14.991 173.709 15.0129 173.712C15.0349 173.715 15.0547 173.727 15.068 173.745H15.068Z" fill="white"/>
<path d="M71.034 170.115C70.8627 169.857 70.7733 169.554 70.7777 169.244C70.7822 168.934 70.8802 168.633 71.0588 168.381C71.4268 167.883 71.9166 167.491 72.4802 167.243C73.6436 166.645 74.8967 166.245 76.189 166.059C77.1711 165.918 78.2431 165.873 79.0049 165.232C79.7617 164.594 80.1836 163.402 81.1641 163.303C82.1121 163.207 82.8409 164.255 83.7915 164.32C84.9631 164.4 85.7303 163.015 86.8704 162.731C87.6336 162.541 88.4184 162.876 89.1342 163.204L93.4302 165.173L95.6322 166.182C96.4014 166.534 97.2688 167.008 97.414 167.849C97.6135 169.003 96.3422 169.818 95.255 170.228C87.4922 173.121 78.9619 173.122 71.1984 170.231" fill="#316EED"/>
<path d="M85.5698 181.794H82.3443C78.8762 181.79 75.5512 180.397 73.0989 177.92C70.6466 175.444 69.2671 172.086 69.2632 168.583V168.402H98.6509V168.583C98.647 172.086 97.2675 175.444 94.8152 177.92C92.3629 180.397 89.0379 181.79 85.5698 181.794Z" fill="#D9DBE9"/>
<path d="M82.3443 163.695C82.3443 164.595 80.7315 165.324 80.7315 165.324C80.7315 165.324 79.1188 164.595 79.1188 163.695C79.1188 162.796 80.7315 162.066 80.7315 162.066C80.7315 162.066 82.3443 162.796 82.3443 163.695Z" fill="#3F3D56"/>
<path d="M92.0208 163.695C92.0208 164.595 90.408 165.324 90.408 165.324C90.408 165.324 88.7953 164.595 88.7953 163.695C88.7953 162.796 90.408 162.066 90.408 162.066C90.408 162.066 92.0208 162.796 92.0208 163.695Z" fill="#3F3D56"/>
<path d="M85.5698 166.953C85.5698 167.852 83.9571 168.582 83.9571 168.582C83.9571 168.582 82.3444 167.852 82.3444 166.953C82.3444 166.053 83.9571 165.324 83.9571 165.324C83.9571 165.324 85.5698 166.053 85.5698 166.953Z" fill="#3F3D56"/>
<path d="M74.2806 160.257C75.1713 160.257 75.8934 159.528 75.8934 158.629C75.8934 157.729 75.1713 157 74.2806 157C73.39 157 72.6679 157.729 72.6679 158.629C72.6679 159.528 73.39 160.257 74.2806 160.257Z" fill="#3F3D56"/>
<path d="M106.389 39.4122V0H103.791V39.4122C100.242 39.7393 96.942 41.3943 94.5389 44.0523C92.1359 46.7103 90.8033 50.1794 90.8029 53.7786V57.7136H99.8947C99.8947 59.1051 100.442 60.4396 101.416 61.4236C102.391 62.4075 103.712 62.9603 105.09 62.9603C106.468 62.9603 107.789 62.4075 108.764 61.4236C109.738 60.4396 110.285 59.1051 110.285 57.7136H119.377V53.7786C119.377 50.1794 118.044 46.7103 115.641 44.0523C113.238 41.3943 109.938 39.7393 106.389 39.4122Z" fill="#262338"/>
<path d="M139.834 29.5592V0H137.886V29.5592C135.224 29.8045 132.749 31.0457 130.946 33.0392C129.144 35.0327 128.145 37.6345 128.144 40.3339V43.2852H134.963C134.963 44.3288 135.374 45.3297 136.104 46.0677C136.835 46.8057 137.826 47.2202 138.86 47.2202C139.893 47.2202 140.884 46.8057 141.615 46.0677C142.346 45.3297 142.756 44.3288 142.756 43.2852H149.575V40.3339C149.575 37.6345 148.575 35.0327 146.773 33.0392C144.971 31.0457 142.496 29.8045 139.834 29.5592Z" fill="#262338"/>
<path d="M74.0263 29.5592V0H72.0781V29.5592C69.4162 29.8045 66.9411 31.0457 65.1389 33.0392C63.3366 35.0327 62.3372 37.6345 62.3369 40.3339V43.2852H69.1557C69.1557 44.3288 69.5662 45.3297 70.297 46.0677C71.0277 46.8057 72.0188 47.2202 73.0522 47.2202C74.0856 47.2202 75.0767 46.8057 75.8074 46.0677C76.5382 45.3297 76.9487 44.3288 76.9487 43.2852H83.7676V40.3339C83.7673 37.6345 82.7679 35.0327 80.9656 33.0392C79.1633 31.0457 76.6883 29.8045 74.0263 29.5592Z" fill="#262338"/>
<path d="M60.6833 146.352L60.2944 162.05L59.8127 181.517H43.4179L42.8535 158.709L42.5474 146.352H60.6833Z" fill="#D9DBE9"/>
<path d="M52.7035 138H50.3821V169.063H52.7035V138Z" fill="#316EED"/>
<path d="M59.5226 158.177L59.0835 180.49H44.1398L43.6254 154.348C44.9717 153.966 46.3815 153.868 47.7669 154.061C49.1522 154.253 50.4835 154.732 51.6778 155.466C54.1746 156.958 56.9795 157.761 59.5226 158.177Z" fill="#A0A3BD"/>
<path d="M47.8392 160.691H45.7091V162.843H47.8392V160.691Z" fill="#E6E6E6"/>
<path d="M49.2901 156.297H47.16V158.448H49.2901V156.297Z" fill="#E6E6E6"/>
<path d="M53.8642 159.34L52.1533 158.059L50.8844 159.786L52.5953 161.068L53.8642 159.34Z" fill="#E6E6E6"/>
<path d="M57.7128 163.153L56.0019 161.871L54.733 163.599L56.4439 164.88L57.7128 163.153Z" fill="#EFF0F6"/>
<path d="M51.1839 165.348L49.473 164.066L48.2041 165.794L49.915 167.076L51.1839 165.348Z" fill="#EFF0F6"/>
<path d="M56.1856 155.438C56.426 155.438 56.6208 155.241 56.6208 154.998C56.6208 154.755 56.426 154.559 56.1856 154.559C55.9452 154.559 55.7503 154.755 55.7503 154.998C55.7503 155.241 55.9452 155.438 56.1856 155.438Z" fill="#262338"/>
<path d="M47.3352 152.504C47.5756 152.504 47.7705 152.307 47.7705 152.065C47.7705 151.822 47.5756 151.625 47.3352 151.625C47.0948 151.625 46.9 151.822 46.9 152.065C46.9 152.307 47.0948 152.504 47.3352 152.504Z" fill="#262338"/>
<path d="M54.7347 149.43C54.9751 149.43 55.17 149.233 55.17 148.99C55.17 148.748 54.9751 148.551 54.7347 148.551C54.4943 148.551 54.2994 148.748 54.2994 148.99C54.2994 149.233 54.4943 149.43 54.7347 149.43Z" fill="#262338"/>
<path d="M174.599 139H180.349C180.551 139 180.745 139.081 180.888 139.225C181.031 139.37 181.111 139.566 181.111 139.77V142.319C181.111 142.523 181.031 142.719 180.888 142.863C180.745 143.007 180.551 143.088 180.349 143.088H179.396V146.907H175.552V143.088H174.599C174.397 143.088 174.203 143.007 174.06 142.863C173.917 142.719 173.837 142.523 173.837 142.319V139.77C173.837 139.566 173.917 139.37 174.06 139.225C174.203 139.081 174.397 139 174.599 139Z" fill="#316EED"/>
<path d="M168.84 162.324C172.361 157.12 174.161 150.924 173.983 144.624C173.979 144.479 174.026 144.337 174.115 144.222C174.204 144.108 174.329 144.028 174.469 143.996V142.895H180.542V143.981H180.626C180.711 143.981 180.796 143.999 180.874 144.033C180.953 144.068 181.023 144.119 181.082 144.182C181.14 144.245 181.185 144.32 181.213 144.402C181.241 144.484 181.253 144.57 181.246 144.656C180.768 151.391 182.383 157.431 186.093 162.776C186.306 163.083 186.415 163.451 186.403 163.827L185.739 184.57C185.723 185.032 185.531 185.471 185.203 185.794C184.874 186.117 184.435 186.299 183.977 186.303H170.241C169.777 186.299 169.334 186.112 169.004 185.783C168.675 185.453 168.486 185.007 168.477 184.539L168.221 164.399C168.214 163.66 168.429 162.936 168.84 162.324Z" fill="#262338"/>
<path opacity="0.2" d="M175.798 139.832C175.798 140.273 175.971 140.695 176.279 141.007C176.588 141.318 177.006 141.493 177.442 141.493C177.879 141.493 178.297 141.318 178.605 141.007C178.914 140.695 179.087 140.273 179.087 139.832" fill="black"/>
<path d="M171.014 169.218H172.677C172.836 168.177 173.359 167.228 174.15 166.543C174.941 165.857 175.949 165.48 176.992 165.48C178.035 165.48 179.043 165.857 179.834 166.543C180.625 167.228 181.148 168.177 181.307 169.218H182.97C183.147 169.218 183.322 169.256 183.483 169.331C183.643 169.406 183.786 169.514 183.901 169.65C184.017 169.786 184.102 169.945 184.15 170.117C184.199 170.289 184.21 170.469 184.183 170.646L182.376 182.505H172.002L169.808 170.686C169.775 170.507 169.781 170.322 169.826 170.146C169.871 169.97 169.955 169.806 170.07 169.666C170.185 169.525 170.329 169.413 170.492 169.335C170.656 169.258 170.834 169.218 171.014 169.218Z" fill="#316EED"/>
</svg>
