<svg width="78" height="68" viewBox="0 0 78 68" fill="none" xmlns="http://www.w3.org/2000/svg">
<path d="M14.7269 65.9784C14.2321 65.7 13.7295 65.3289 13.2192 64.865C12.7243 64.4165 12.2604 63.9062 11.8274 63.334C11.3944 62.7619 11.0233 62.182 10.714 61.5943L13.1032 60.5737C13.4898 61.3779 14.0156 62.1047 14.6805 62.7541C15.3455 63.4036 16.0336 63.9526 16.7449 64.401L14.7269 65.9784ZM2.50269 53.3366C2.50269 51.6201 2.81196 50.1356 3.43052 48.883C4.06454 47.6304 4.96918 46.6639 6.14444 45.9835C7.31969 45.2877 8.71918 44.9397 10.3429 44.9397C11.9511 44.9397 13.3429 45.2877 14.5181 45.9835C15.6934 46.6639 16.598 47.6304 17.2321 48.883C17.8815 50.1356 18.2063 51.6124 18.2063 53.3134C18.2063 55.0299 17.8815 56.5222 17.2321 57.7902C16.598 59.0428 15.6934 60.017 14.5181 60.7129C13.3429 61.4088 11.9511 61.7567 10.3429 61.7567C8.71918 61.7567 7.31969 61.4088 6.14444 60.7129C4.98464 60.017 4.08774 59.0428 3.45372 57.7902C2.8197 56.5222 2.50269 55.0376 2.50269 53.3366ZM5.63413 53.3366C5.63413 55.1768 6.02846 56.615 6.81712 57.6511C7.60578 58.6871 8.78103 59.2052 10.3429 59.2052C11.8584 59.2052 13.0259 58.6871 13.8455 57.6511C14.6651 56.615 15.0748 55.1768 15.0748 53.3366C15.0748 51.4809 14.6651 50.0428 13.8455 49.0222C13.0413 48.0016 11.8738 47.4913 10.3429 47.4913C8.78103 47.4913 7.60578 48.0016 6.81712 49.0222C6.02846 50.0428 5.63413 51.4809 5.63413 53.3366Z" fill="#14142A"/>
<path d="M25.3068 61.7567C23.8686 61.7567 22.7939 61.3624 22.0825 60.5737C21.3712 59.7851 21.0155 58.5789 21.0155 56.9552V49.8108H23.915V56.932C23.915 57.798 24.0928 58.4397 24.4485 58.8572C24.8042 59.2593 25.3454 59.4603 26.0722 59.4603C26.8918 59.4603 27.5568 59.182 28.0671 58.6253C28.5928 58.0686 28.8557 57.334 28.8557 56.4217V49.8108H31.7552V61.5248H28.9253V59.1356H29.2501C28.9098 59.9706 28.3918 60.6201 27.6959 61.084C27.0155 61.5325 26.2191 61.7567 25.3068 61.7567Z" fill="#14142A"/>
<path d="M34.9262 61.5248V49.8108H37.8256V61.5248H34.9262ZM34.7638 47.6072V44.7773H37.988V47.6072H34.7638Z" fill="#14142A"/>
<path d="M40.5336 61.5248V59.6227L47.8635 51.2954V51.9913H40.5336V49.8108H50.4846V51.7129L43.0851 60.1098L43.0619 59.3443H50.7398V61.5248H40.5336Z" fill="#14142A"/>
<path d="M52.7663 61.5248V59.6227L60.0962 51.2954V51.9913H52.7663V49.8108H62.7173V51.7129L55.3179 60.1098L55.2947 59.3443H62.9725V61.5248H52.7663Z" fill="#14142A"/>
<path d="M65.0498 66.7902L64.3771 64.4938C65.1039 64.3392 65.7147 64.1614 66.2096 63.9603C66.7044 63.7593 67.1142 63.4964 67.439 63.1717C67.7637 62.8469 68.0343 62.4294 68.2508 61.9191L68.8307 60.5505L68.7611 61.6871L63.658 49.8108H66.7431L70.408 58.95H69.7354L73.4235 49.8108H76.3462L71.0111 62.1742C70.6555 63.0093 70.2689 63.6974 69.8513 64.2387C69.4338 64.7954 68.9854 65.2361 68.506 65.5608C68.0266 65.901 67.5008 66.1639 66.9287 66.3495C66.3565 66.5351 65.7302 66.682 65.0498 66.7902Z" fill="#14142A"/>
<path fill-rule="evenodd" clip-rule="evenodd" d="M2 2.98197V34.2413C2 34.7837 2.43964 35.2233 2.98197 35.2233H12.7676C13.3813 35.2233 13.8434 35.7809 13.8037 36.3933C13.6249 39.1505 14.4886 42.6372 18.1207 42.5881C22.3236 42.5313 23.2579 39.1032 23.0932 36.3972C23.0558 35.7833 23.5175 35.2233 24.1326 35.2233H33.9959C34.5382 35.2233 34.9778 34.7837 34.9778 34.2413V24.4082C34.9778 23.8107 35.5075 23.3549 36.1042 23.3859C38.8865 23.5304 42.3426 22.7456 42.3426 18.6117C42.3426 14.9917 39.268 13.6137 36.1791 13.8541C35.5558 13.9026 34.9778 13.4396 34.9778 12.8144V2.98197C34.9778 2.43964 34.5382 2 33.9959 2H2.98197C2.43964 2 2 2.43964 2 2.98197ZM16.0637 23.2762C16.6905 23.9113 17.6431 24.2288 18.9215 24.2288C20.1751 24.2288 21.1153 23.9113 21.7421 23.2762C22.3771 22.6412 22.6947 21.6969 22.6947 20.4433V15.3711H20.7895V20.4556C20.7895 21.1567 20.6328 21.6886 20.3194 22.0515C20.0143 22.4144 19.5483 22.5958 18.9215 22.5958C18.2782 22.5958 17.8039 22.4144 17.4988 22.0515C17.2019 21.6886 17.0534 21.1567 17.0534 20.4556V15.3711H15.1235V20.4433C15.1235 21.6969 15.4369 22.6412 16.0637 23.2762Z" fill="#316EED"/>
<path fill-rule="evenodd" clip-rule="evenodd" d="M42.3425 3.06139V12.5033C42.3425 13.2215 43.0427 13.7356 43.749 13.6056C46.8311 13.0383 51.1381 13.4793 51.0815 18.5711C51.025 23.6564 46.7692 24.1834 43.7364 23.6771C43.0332 23.5597 42.3425 24.0729 42.3425 24.7859V34.1632C42.3425 34.7494 42.8177 35.2246 43.4039 35.2246H53.6683C54.3871 35.2246 54.9018 34.5216 54.7922 33.8113C54.3746 31.1037 54.9758 27.4208 59.738 27.3101C64.5278 27.1987 65.0299 30.9988 64.5406 33.8054C64.4167 34.5164 64.9314 35.2246 65.6531 35.2246H75.1653C75.7515 35.2246 76.2267 34.7494 76.2267 34.1632V3.06139C76.2267 2.4752 75.7515 2 75.1653 2H43.4039C42.8177 2 42.3425 2.4752 42.3425 3.06139ZM58.6061 14.1445L54.5979 22.8662H56.5402L57.361 20.9734H61.4843L62.3051 22.8662H64.2598L60.202 14.1445H58.6061ZM58.0002 19.4889L59.3979 16.1734H59.4474L60.8776 19.4889H58.0002Z" fill="#316EED"/>
</svg>
