<svg width="188" height="188" viewBox="0 0 188 188" fill="none" xmlns="http://www.w3.org/2000/svg">
<path d="M94 188C145.915 188 188 183.971 188 179C188 174.029 145.915 170 94 170C42.0852 170 0 174.029 0 179C0 183.971 42.0852 188 94 188Z" fill="#EFF0F6"/>
<path d="M51.8453 132.767C54.5423 132.767 56.7287 130.58 56.7287 127.883C56.7287 125.186 54.5423 123 51.8453 123C49.1483 123 46.9619 125.186 46.9619 127.883C46.9619 130.58 49.1483 132.767 51.8453 132.767Z" fill="#262338"/>
<path d="M55.9962 151.863C62.6214 151.863 67.9923 146.493 67.9923 139.867C67.9923 133.242 62.6214 127.871 55.9962 127.871C49.3709 127.871 44 133.242 44 139.867C44 146.493 49.3709 151.863 55.9962 151.863Z" fill="#316EED"/>
<path d="M57.1524 175.998H54.6953L55.8154 138.059L57.1524 175.998Z" fill="#262338"/>
<path d="M56.0322 145.255L58.67 141.605L55.9961 146.158L55.707 145.652L56.0322 145.255Z" fill="#262338"/>
<path d="M55.7436 148.938L53.106 145.289L55.7798 149.842L56.0689 149.336L55.7436 148.938Z" fill="#262338"/>
<path d="M33.4128 176.92H26.3184L29.5526 67.3711L33.4128 176.92Z" fill="#262338"/>
<path d="M30.1787 88.1311L37.7951 77.5938L30.0744 90.7394L29.2397 89.2788L30.1787 88.1311Z" fill="#262338"/>
<path d="M29.3437 98.7718L21.7275 88.2344L29.4482 101.38L30.2829 99.9194L29.3437 98.7718Z" fill="#262338"/>
<path d="M51.9931 12.9216C51.8099 9.68123 50.4817 6.61124 48.2455 4.259C46.0092 1.90676 43.0103 0.425184 39.7833 0.078417C36.5563 -0.268351 33.311 0.542236 30.6261 2.36565C27.9411 4.18907 25.991 6.90679 25.1235 10.0343C24.9576 10.0283 24.7918 10.0217 24.6245 10.0217C21.6657 10.0222 18.7867 10.9807 16.418 12.7538C14.0494 14.5269 12.3186 17.0192 11.4844 19.858C9.52384 18.9965 7.3329 18.8096 5.25473 19.3265C3.17657 19.8435 1.32852 21.035 0 22.7146H42.7192C43.9654 22.7181 45.1996 22.4701 46.3477 21.9855C47.4959 21.5008 48.5345 20.7895 49.4013 19.894C50.268 18.9985 50.9452 17.9373 51.3922 16.774C51.8393 15.6107 52.0469 14.3691 52.0028 13.1236C52.0001 13.0564 51.9969 12.9891 51.9931 12.9216Z" fill="#D9DBE9"/>
<path d="M16.2804 57.7474C18.312 57.7474 19.9588 56.1005 19.9588 54.069C19.9588 52.0375 18.312 50.3906 16.2804 50.3906C14.2489 50.3906 12.6021 52.0375 12.6021 54.069C12.6021 56.1005 14.2489 57.7474 16.2804 57.7474Z" fill="#EFF0F6"/>
<path d="M27.387 48.4577C29.0786 48.4577 30.4498 47.0864 30.4498 45.3948C30.4498 43.7033 29.0786 42.332 27.387 42.332C25.6955 42.332 24.3242 43.7033 24.3242 45.3948C24.3242 47.0864 25.6955 48.4577 27.387 48.4577Z" fill="#EFF0F6"/>
<path d="M42.3361 65.7162C44.3676 65.7162 46.0145 64.0693 46.0145 62.0378C46.0145 60.0062 44.3676 58.3594 42.3361 58.3594C40.3046 58.3594 38.6577 60.0062 38.6577 62.0378C38.6577 64.0693 40.3046 65.7162 42.3361 65.7162Z" fill="#EFF0F6"/>
<path d="M14.4411 82.5755C16.4726 82.5755 18.1195 80.9287 18.1195 78.8971C18.1195 76.8656 16.4726 75.2188 14.4411 75.2188C12.4096 75.2188 10.7627 76.8656 10.7627 78.8971C10.7627 80.9287 12.4096 82.5755 14.4411 82.5755Z" fill="#EFF0F6"/>
<path d="M42.3361 103.724C44.3676 103.724 46.0145 102.077 46.0145 100.046C46.0145 98.0141 44.3676 96.3672 42.3361 96.3672C40.3046 96.3672 38.6577 98.0141 38.6577 100.046C38.6577 102.077 40.3046 103.724 42.3361 103.724Z" fill="#EFF0F6"/>
<path d="M36.5056 170.97C36.5069 170.93 36.5116 170.891 36.5116 170.851C36.5125 170.235 36.3583 169.628 36.0632 169.087C35.7681 168.546 35.3415 168.088 34.8229 167.755C34.3042 167.422 33.7101 167.225 33.0952 167.182C32.4804 167.139 31.8645 167.251 31.3045 167.508C30.779 166.902 30.069 166.484 29.2835 166.32C28.4979 166.156 27.6801 166.253 26.9554 166.598C26.2308 166.943 25.6392 167.516 25.2713 168.229C24.9035 168.943 24.7797 169.757 24.919 170.547C24.9003 170.547 24.8821 170.545 24.8634 170.545C24.2778 170.544 23.7004 170.683 23.1793 170.95C22.6583 171.217 22.2085 171.605 21.8675 172.081C21.5264 172.557 21.3039 173.107 21.2185 173.687C21.1331 174.266 21.1873 174.857 21.3765 175.411C21.5657 175.966 21.8844 176.467 22.3063 176.873C22.7281 177.279 23.2408 177.578 23.8018 177.747C24.3627 177.915 24.9557 177.946 25.5314 177.839C26.107 177.732 26.6488 177.489 27.1116 177.13C27.4035 177.699 27.8388 178.182 28.3744 178.531C28.91 178.88 29.5274 179.083 30.1657 179.121C30.8039 179.159 31.441 179.029 32.014 178.746C32.5869 178.462 33.076 178.033 33.4328 177.503C33.8705 177.821 34.3731 178.039 34.9048 178.141C35.4364 178.243 35.9839 178.226 36.5082 178.091C37.0325 177.957 37.5207 177.708 37.9377 177.363C38.3548 177.018 38.6905 176.585 38.9209 176.095C39.1513 175.605 39.2706 175.071 39.2704 174.53C39.2702 173.988 39.1505 173.454 38.9197 172.964C38.689 172.474 38.353 172.042 37.9357 171.697C37.5183 171.352 37.03 171.104 36.5056 170.97Z" fill="#EFF0F6"/>
<path d="M45.7075 86.8661C46.5539 86.8661 47.2401 86.1799 47.2401 85.3334C47.2401 84.487 46.5539 83.8008 45.7075 83.8008C44.861 83.8008 44.1748 84.487 44.1748 85.3334C44.1748 86.1799 44.861 86.8661 45.7075 86.8661Z" fill="#EFF0F6"/>
<path d="M35.8984 50.081C36.7449 50.081 37.4311 49.3948 37.4311 48.5483C37.4311 47.7018 36.7449 47.0156 35.8984 47.0156C35.0519 47.0156 34.3657 47.7018 34.3657 48.5483C34.3657 49.3948 35.0519 50.081 35.8984 50.081Z" fill="#EFF0F6"/>
<path d="M30.6875 88.0888C31.5339 88.0888 32.2201 87.4026 32.2201 86.5561C32.2201 85.7096 31.5339 85.0234 30.6875 85.0234C29.841 85.0234 29.1548 85.7096 29.1548 86.5561C29.1548 87.4026 29.841 88.0888 30.6875 88.0888Z" fill="#EFF0F6"/>
<path d="M31.9135 86.5575C32.76 86.5575 33.4462 85.8713 33.4462 85.0249C33.4462 84.1784 32.76 83.4922 31.9135 83.4922C31.0671 83.4922 30.3809 84.1784 30.3809 85.0249C30.3809 85.8713 31.0671 86.5575 31.9135 86.5575Z" fill="#EFF0F6"/>
<path d="M32.8334 85.0263C33.6799 85.0263 34.3661 84.3401 34.3661 83.4936C34.3661 82.6471 33.6799 81.9609 32.8334 81.9609C31.987 81.9609 31.3008 82.6471 31.3008 83.4936C31.3008 84.3401 31.987 85.0263 32.8334 85.0263Z" fill="#EFF0F6"/>
<path d="M29.1547 97.8974C30.0012 97.8974 30.6874 97.2112 30.6874 96.3647C30.6874 95.5182 30.0012 94.832 29.1547 94.832C28.3083 94.832 27.6221 95.5182 27.6221 96.3647C27.6221 97.2112 28.3083 97.8974 29.1547 97.8974Z" fill="#EFF0F6"/>
<path d="M51.8378 115.065C52.6843 115.065 53.3705 114.379 53.3705 113.533C53.3705 112.686 52.6843 112 51.8378 112C50.9914 112 50.3052 112.686 50.3052 113.533C50.3052 114.379 50.9914 115.065 51.8378 115.065Z" fill="#EFF0F6"/>
<path d="M19.0385 115.987C19.885 115.987 20.5712 115.301 20.5712 114.455C20.5712 113.608 19.885 112.922 19.0385 112.922C18.1921 112.922 17.5059 113.608 17.5059 114.455C17.5059 115.301 18.1921 115.987 19.0385 115.987Z" fill="#EFF0F6"/>
<path d="M20.8784 68.7802C21.7248 68.7802 22.411 68.094 22.411 67.2475C22.411 66.401 21.7248 65.7148 20.8784 65.7148C20.0319 65.7148 19.3457 66.401 19.3457 67.2475C19.3457 68.094 20.0319 68.7802 20.8784 68.7802Z" fill="#EFF0F6"/>
<path d="M27.9287 96.3661C28.7751 96.3661 29.4613 95.6799 29.4613 94.8335C29.4613 93.987 28.7751 93.3008 27.9287 93.3008C27.0822 93.3008 26.396 93.987 26.396 94.8335C26.396 95.6799 27.0822 96.3661 27.9287 96.3661Z" fill="#EFF0F6"/>
<path d="M26.3959 93.9169C27.2424 93.9169 27.9286 93.2307 27.9286 92.3842C27.9286 91.5378 27.2424 90.8516 26.3959 90.8516C25.5495 90.8516 24.8633 91.5378 24.8633 92.3842C24.8633 93.2307 25.5495 93.9169 26.3959 93.9169Z" fill="#EFF0F6"/>
<path d="M90.6172 56.2345C97.5855 56.2345 103.234 50.5855 103.234 43.6172C103.234 36.6489 97.5855 31 90.6172 31C83.6489 31 78 36.6489 78 43.6172C78 50.5855 83.6489 56.2345 90.6172 56.2345Z" fill="#A0A3BD"/>
<path d="M105.537 51.8353L105.483 51.8644C104.907 52.1798 104.26 52.3461 103.603 52.3485C102.946 52.3508 102.299 52.1889 101.72 51.8776C101.686 51.8596 101.653 51.8418 101.62 51.8243C101.041 51.5153 100.395 51.3548 99.7388 51.3571C99.0827 51.3593 98.4374 51.5243 97.8607 51.8373L97.8109 51.8644C97.2342 52.1798 96.588 52.3462 95.9307 52.3485C95.2735 52.3508 94.626 52.1889 94.0472 51.8776C94.0125 51.8589 93.9781 51.8405 93.9439 51.8223C93.3719 51.5147 92.7328 51.3532 92.0834 51.3521C91.4339 51.3509 90.7942 51.5102 90.2211 51.8157C88.4705 52.7585 86.1039 54.3704 86.1143 56.1908C86.1147 56.2628 86.1188 56.3347 86.1265 56.4063C86.3301 58.2968 92.4962 58.7785 95.8836 57.8875C98.4086 58.4637 101.031 58.4637 103.556 57.8875C106.929 58.7927 113.221 58.2741 113.404 56.3619C113.411 56.2903 113.415 56.2184 113.414 56.1464C113.404 54.325 111.016 52.73 109.255 51.8005C108.68 51.4998 108.04 51.3457 107.391 51.3517C106.743 51.3578 106.106 51.5239 105.537 51.8353Z" fill="#D9DBE9"/>
<path d="M172.13 71.8119L172.076 71.8409C171.5 72.1563 170.853 72.3227 170.196 72.325C169.539 72.3273 168.891 72.1655 168.312 71.8541C168.279 71.8362 168.246 71.8184 168.213 71.8008C167.634 71.4919 166.988 71.3313 166.332 71.3336C165.675 71.3359 165.03 71.5009 164.453 71.8138L164.404 71.8409C163.827 72.1563 163.181 72.3227 162.524 72.325C161.866 72.3273 161.219 72.1655 160.64 71.8542C160.605 71.8355 160.571 71.817 160.537 71.7988C159.965 71.4913 159.326 71.3298 158.676 71.3286C158.027 71.3275 157.387 71.4867 156.814 71.7923C155.063 72.735 152.697 74.3469 152.707 76.1673C152.707 76.2393 152.712 76.3113 152.719 76.3828C152.923 78.2733 159.089 78.755 162.476 77.8641C165.001 78.4402 167.624 78.4402 170.149 77.8641C173.522 78.7693 179.813 78.2507 179.997 76.3385C180.004 76.2669 180.007 76.1949 180.007 76.123C179.997 74.3016 177.609 72.7065 175.847 71.777C175.273 71.4764 174.633 71.3222 173.984 71.3283C173.336 71.3344 172.699 71.5005 172.13 71.8119Z" fill="#D9DBE9"/>
<path d="M165.781 146.4C173.871 146.4 180.43 133.018 180.43 116.51C180.43 100.003 173.871 86.6211 165.781 86.6211C157.691 86.6211 151.132 100.003 151.132 116.51C151.132 133.018 157.691 146.4 165.781 146.4Z" fill="#262338"/>
<path d="M167.133 180.313C161.266 145.115 167.074 95.1584 167.133 94.8086L168.275 95.002C168.216 95.35 162.441 144.336 168.275 179.34L167.133 180.313Z" fill="#316EED"/>
<path d="M178.675 110.083L165.429 117.168L165.975 118.189L179.221 111.103L178.675 110.083Z" fill="#316EED"/>
<path d="M151.996 113.628L151.45 114.648L164.695 121.738L165.241 120.717L151.996 113.628Z" fill="#316EED"/>
<path d="M142.31 134.61C153.985 134.61 163.45 115.297 163.45 91.4747C163.45 67.652 153.985 48.3398 142.31 48.3398C130.634 48.3398 121.169 67.652 121.169 91.4747C121.169 115.297 130.634 134.61 142.31 134.61Z" fill="#316EED"/>
<path d="M144.664 176.113C136.209 125.381 144.579 60.7353 144.664 60.2305L145.506 60.3732C145.421 60.8767 137.075 125.386 145.506 175.973L144.664 176.113Z" fill="#262338"/>
<path d="M161.113 82.5557L141.996 92.7812L142.399 93.5345L161.516 83.3089L161.113 82.5557Z" fill="#262338"/>
<path d="M122.225 87.6844L121.822 88.4375L140.936 98.6684L141.339 97.9153L122.225 87.6844Z" fill="#262338"/>
<path d="M100.57 101.23H99.2485V180.086H100.57V101.23Z" fill="#262338"/>
<path d="M114.226 108.555C114.32 128.937 99.9792 145.527 99.9792 145.527C99.9792 145.527 85.4865 129.07 85.3925 108.688C85.2986 88.3048 99.639 71.7148 99.639 71.7148C99.639 71.7148 114.132 88.1719 114.226 108.555Z" fill="#316EED"/>
<path opacity="0.1" d="M114.226 108.555C114.32 128.937 99.9792 145.527 99.9792 145.527C99.9792 145.527 85.4865 129.07 85.3925 108.688C85.2986 88.3048 99.639 71.7148 99.639 71.7148C99.639 71.7148 114.132 88.1719 114.226 108.555Z" fill="#316EED"/>
<path d="M81.6264 101.23H79.8643V180.086H81.6264V101.23Z" fill="#262338"/>
<path d="M95.0415 108.555C95.1354 128.937 80.7951 145.527 80.7951 145.527C80.7951 145.527 66.3024 129.07 66.2085 108.688C66.1145 88.3048 80.4549 71.7148 80.4549 71.7148C80.4549 71.7148 94.9475 88.1719 95.0415 108.555Z" fill="#316EED"/>
<path d="M85.0749 174.805C85.0749 174.805 83.3128 178.61 81.8821 179.677C80.4334 178.607 78.6368 174.805 78.6368 174.805C78.6368 174.805 76.8747 178.61 75.4439 179.677C73.9953 178.607 72.1987 174.805 72.1987 174.805C72.1987 174.805 67.1942 179.88 67.208 182.283C67.2084 182.343 67.2118 182.403 67.2183 182.463C67.3891 184.036 72.5632 184.437 75.4056 183.696C77.5244 184.175 79.7249 184.175 81.8437 183.696C84.6739 184.449 89.9532 184.018 90.1075 182.426C90.1133 182.366 90.1161 182.306 90.1157 182.246C90.1019 179.843 85.0749 174.805 85.0749 174.805Z" fill="#262338"/>
<path d="M158.43 174.545C157.066 177.075 154.171 178.161 154.171 178.161C154.171 178.161 153.488 175.146 154.852 172.616C156.216 170.086 159.111 169 159.111 169C159.111 169 159.795 172.016 158.43 174.545Z" fill="#262338"/>
<path d="M157.493 173.713C155.03 175.195 154.082 178.138 154.082 178.138C154.082 178.138 157.126 178.678 159.589 177.197C162.052 175.715 163 172.772 163 172.772C163 172.772 159.956 172.231 157.493 173.713Z" fill="#316EED"/>
<path d="M127.071 175.133C126.206 178.329 123.245 180.309 123.245 180.309C123.245 180.309 121.685 177.106 122.55 173.91C123.414 170.714 126.376 168.734 126.376 168.734C126.376 168.734 127.936 171.937 127.071 175.133Z" fill="#316EED"/>
<path d="M119.205 175.133C120.07 178.329 123.032 180.309 123.032 180.309C123.032 180.309 124.591 177.106 123.727 173.91C122.862 170.714 119.9 168.734 119.9 168.734C119.9 168.734 118.341 171.937 119.205 175.133Z" fill="#316EED"/>
<path d="M120.475 174.445C122.848 176.755 123.138 180.305 123.138 180.305C123.138 180.305 119.581 180.111 117.208 177.801C114.836 175.492 114.546 171.941 114.546 171.941C114.546 171.941 118.103 172.136 120.475 174.445Z" fill="#262338"/>
<path d="M125.801 174.445C123.428 176.755 123.138 180.305 123.138 180.305C123.138 180.305 126.695 180.111 129.068 177.801C131.44 175.492 131.73 171.941 131.73 171.941C131.73 171.941 128.173 172.136 125.801 174.445Z" fill="#262338"/>
<path d="M147.804 31.1216L150.883 28.7151C148.491 28.4577 147.508 29.7319 147.107 30.741C145.238 29.9827 143.203 30.9763 143.203 30.9763L149.364 33.1618C149.054 32.3506 148.512 31.6428 147.805 31.1214L147.804 31.1216Z" fill="#316EED"/>
<path d="M108.243 17.5317L113.761 13.0624C109.474 12.5843 107.713 14.9507 106.994 16.8247C103.646 15.4165 100 17.2618 100 17.2618L111.04 21.3205C110.482 19.814 109.512 18.4997 108.243 17.5317Z" fill="#316EED"/>
<path d="M167.258 18.5501L171.364 15.2841C168.174 14.9348 166.863 16.664 166.328 18.0335C163.836 17.0045 161.123 18.3529 161.123 18.3529L169.339 21.3189C168.924 20.218 168.203 19.2574 167.259 18.5497L167.258 18.5501Z" fill="#316EED"/>
</svg>
