<svg width="188" height="188" viewBox="0 0 188 188" fill="none" xmlns="http://www.w3.org/2000/svg">
<path d="M160.95 48.7142C157.334 39.148 156.484 29.3808 159.297 19.347C159.264 18.7526 159.469 18.1694 159.867 17.7255C160.264 17.2816 160.822 17.0132 161.418 16.9792L183.643 15.7339C184.239 15.7012 184.823 15.9056 185.268 16.3023C185.713 16.699 185.982 17.2556 186.016 17.8499L187.669 47.2171C187.701 47.8115 187.496 48.3947 187.099 48.8386C186.701 49.2825 186.144 49.5509 185.548 49.5849L163.322 50.8302C162.727 50.8629 162.142 50.6585 161.698 50.2618C161.253 49.8651 160.984 49.3085 160.95 48.7142Z" fill="#262338"/>
<path d="M162.156 39.7489C159.65 35.1271 160 28.2872 161.093 20.869C161.063 20.3123 161.255 19.7662 161.627 19.3505C161.999 18.9347 162.521 18.6834 163.079 18.6515L182.18 17.5812C182.738 17.5506 183.285 17.742 183.702 18.1136C184.119 18.4851 184.371 19.0063 184.403 19.563L185.873 45.6958C185.904 46.2525 185.712 46.7986 185.34 47.2143C184.967 47.6301 184.445 47.8814 183.887 47.9133L172.054 48.5763C169.569 48.7127 167.132 47.86 165.276 46.2051C163.42 44.5502 162.298 42.2283 162.156 39.7489Z" fill="white"/>
<path d="M51.3023 124.453C44.0774 97.5338 45.2412 67.3622 51.3023 35.2921C51.3033 34.498 51.6198 33.7367 52.1825 33.1752C52.7452 32.6137 53.5081 32.2978 54.3039 32.2969H143.616C144.412 32.2978 145.175 32.6137 145.737 33.1752C146.3 33.7367 146.617 34.498 146.618 35.2921V124.453C146.617 125.247 146.3 126.009 145.737 126.57C145.175 127.132 144.412 127.448 143.616 127.448H54.3039C53.5081 127.448 52.7452 127.132 52.1825 126.57C51.6198 126.009 51.3033 125.247 51.3023 124.453Z" fill="#EFF0F6"/>
<path d="M51.8744 102.138C50.0399 80.5392 50.5269 58.8068 53.327 37.3117C53.3279 36.5176 53.6445 35.7562 54.2072 35.1947C54.7699 34.6332 55.5328 34.3173 56.3286 34.3164H141.591C141.985 34.3164 142.375 34.3939 142.74 34.5444C143.104 34.6949 143.435 34.9156 143.713 35.1937C143.992 35.4718 144.213 35.802 144.364 36.1654C144.515 36.5288 144.592 36.9183 144.592 37.3117V122.43C144.592 123.225 144.276 123.987 143.713 124.548C143.15 125.11 142.387 125.426 141.591 125.426H77.2875C70.8973 125.429 64.7388 123.038 60.0321 118.725C55.3254 114.412 52.4139 108.492 51.8744 102.138Z" fill="white"/>
<path d="M106.466 51.127H70.5697C70.4679 51.1272 70.3671 51.1074 70.2729 51.0687C70.1788 51.0299 70.0933 50.9731 70.0213 50.9013C69.9492 50.8296 69.892 50.7443 69.853 50.6505C69.814 50.5567 69.7939 50.4561 69.7939 50.3545C69.7939 50.2529 69.814 50.1524 69.853 50.0585C69.892 49.9647 69.9492 49.8795 70.0213 49.8077C70.0933 49.736 70.1788 49.6791 70.2729 49.6404C70.3671 49.6016 70.4679 49.5818 70.5697 49.582H106.466C106.671 49.5825 106.868 49.664 107.013 49.8089C107.157 49.9537 107.239 50.1499 107.239 50.3545C107.239 50.5591 107.157 50.7554 107.013 50.9002C106.868 51.045 106.671 51.1266 106.466 51.127Z" fill="#316EED"/>
<path d="M124.638 58.1895H70.5697C70.4679 58.1897 70.3671 58.1699 70.2729 58.1312C70.1788 58.0924 70.0933 58.0356 70.0213 57.9638C69.9492 57.8921 69.892 57.8068 69.853 57.713C69.814 57.6192 69.7939 57.5186 69.7939 57.417C69.7939 57.3154 69.814 57.2148 69.853 57.121C69.892 57.0272 69.9492 56.942 70.0213 56.8702C70.0933 56.7985 70.1788 56.7416 70.2729 56.7029C70.3671 56.6641 70.4679 56.6443 70.5697 56.6445H124.638C124.843 56.645 125.039 56.7265 125.184 56.8714C125.329 57.0162 125.41 57.2124 125.41 57.417C125.41 57.6216 125.329 57.8178 125.184 57.9627C125.039 58.1075 124.843 58.1891 124.638 58.1895Z" fill="#EFF0F6"/>
<path d="M124.639 63.7031H70.5687C70.3632 63.7031 70.1661 63.7846 70.0209 63.9296C69.8756 64.0745 69.7939 64.2712 69.7939 64.4762C69.7939 64.6812 69.8756 64.8779 70.0209 65.0229C70.1661 65.1678 70.3632 65.2493 70.5687 65.2493H124.639C124.844 65.2493 125.042 65.1678 125.187 65.0229C125.332 64.8779 125.414 64.6812 125.414 64.4762C125.414 64.2712 125.332 64.0745 125.187 63.9296C125.042 63.7846 124.844 63.7031 124.639 63.7031Z" fill="#EFF0F6"/>
<path d="M124.638 72.3145H70.57C70.3647 72.3145 70.1678 72.2331 70.0226 72.0882C69.8775 71.9434 69.7959 71.7469 69.7959 71.542C69.7959 71.3371 69.8775 71.1406 70.0226 70.9958C70.1678 70.8509 70.3647 70.7695 70.57 70.7695H124.638C124.843 70.7695 125.04 70.8509 125.185 70.9958C125.331 71.1406 125.412 71.3371 125.412 71.542C125.412 71.7469 125.331 71.9434 125.185 72.0882C125.04 72.2331 124.843 72.3145 124.638 72.3145Z" fill="#EFF0F6"/>
<path d="M124.638 79.377H70.5697C70.4679 79.3772 70.3671 79.3574 70.2729 79.3187C70.1788 79.2799 70.0933 79.2231 70.0213 79.1513C69.9492 79.0796 69.892 78.9943 69.853 78.9005C69.814 78.8067 69.7939 78.7061 69.7939 78.6045C69.7939 78.5029 69.814 78.4024 69.853 78.3085C69.892 78.2147 69.9492 78.1295 70.0213 78.0577C70.0933 77.986 70.1788 77.9291 70.2729 77.8904C70.3671 77.8516 70.4679 77.8318 70.5697 77.832H124.638C124.843 77.8325 125.039 77.914 125.184 78.0589C125.329 78.2037 125.41 78.3999 125.41 78.6045C125.41 78.8091 125.329 79.0054 125.184 79.1502C125.039 79.295 124.843 79.3766 124.638 79.377Z" fill="#EFF0F6"/>
<path d="M124.638 86.4825H70.5697C70.4679 86.4827 70.3671 86.4629 70.2729 86.4241C70.1788 86.3854 70.0933 86.3285 70.0213 86.2568C69.9492 86.185 69.892 86.0998 69.853 86.006C69.814 85.9122 69.7939 85.8116 69.7939 85.71C69.7939 85.6084 69.814 85.5078 69.853 85.414C69.892 85.3202 69.9492 85.2349 70.0213 85.1632C70.0933 85.0914 70.1788 85.0346 70.2729 84.9958C70.3671 84.9571 70.4679 84.9373 70.5697 84.9375H124.638C124.843 84.9379 125.039 85.0195 125.184 85.1643C125.329 85.3092 125.41 85.5054 125.41 85.71C125.41 85.9146 125.329 86.1108 125.184 86.2556C125.039 86.4005 124.843 86.482 124.638 86.4825Z" fill="#EFF0F6"/>
<path d="M124.638 93.584H70.5697C70.4679 93.5842 70.3671 93.5644 70.2729 93.5257C70.1788 93.487 70.0933 93.4301 70.0213 93.3584C69.9492 93.2866 69.892 93.2014 69.853 93.1075C69.814 93.0137 69.7939 92.9131 69.7939 92.8116C69.7939 92.71 69.814 92.6094 69.853 92.5156C69.892 92.4217 69.9492 92.3365 70.0213 92.2647C70.0933 92.193 70.1788 92.1361 70.2729 92.0974C70.3671 92.0587 70.4679 92.0389 70.5697 92.0391H124.638C124.843 92.0395 125.039 92.1211 125.184 92.2659C125.329 92.4107 125.41 92.607 125.41 92.8116C125.41 93.0161 125.329 93.2124 125.184 93.3572C125.039 93.502 124.843 93.5836 124.638 93.584Z" fill="#EFF0F6"/>
<path d="M124.638 100.69H70.5697C70.4679 100.69 70.3671 100.67 70.2729 100.631C70.1788 100.592 70.0933 100.536 70.0213 100.464C69.9492 100.392 69.892 100.307 69.853 100.213C69.814 100.119 69.7939 100.019 69.7939 99.917C69.7939 99.8154 69.814 99.7149 69.853 99.621C69.892 99.5272 69.9492 99.442 70.0213 99.3702C70.0933 99.2985 70.1788 99.2416 70.2729 99.2029C70.3671 99.1641 70.4679 99.1443 70.5697 99.1445H124.638C124.843 99.145 125.039 99.2265 125.184 99.3714C125.329 99.5162 125.41 99.7124 125.41 99.917C125.41 100.122 125.329 100.318 125.184 100.463C125.039 100.607 124.843 100.689 124.638 100.69Z" fill="#EFF0F6"/>
<path d="M124.638 107.795H70.5697C70.4679 107.795 70.3671 107.775 70.2729 107.737C70.1788 107.698 70.0933 107.641 70.0213 107.569C69.9492 107.498 69.892 107.412 69.853 107.318C69.814 107.225 69.7939 107.124 69.7939 107.022C69.7939 106.921 69.814 106.82 69.853 106.727C69.892 106.633 69.9492 106.547 70.0213 106.476C70.0933 106.404 70.1788 106.347 70.2729 106.308C70.3671 106.27 70.4679 106.25 70.5697 106.25H124.638C124.843 106.25 125.039 106.332 125.184 106.477C125.329 106.622 125.41 106.818 125.41 107.022C125.41 107.227 125.329 107.423 125.184 107.568C125.039 107.713 124.843 107.795 124.638 107.795Z" fill="#EFF0F6"/>
<path d="M111.808 60.7535C109.433 59.9066 106.356 60.237 104.689 62.3014C103.196 64.1504 103.017 67.0945 104.917 68.7446C107.229 70.7534 110.433 70.0144 112.958 68.8811C115.269 67.8441 117.812 66.1721 117.777 63.3346C117.771 62.6053 117.592 61.8878 117.253 61.2415C116.914 60.5953 116.426 60.0388 115.829 59.6183C115.223 59.2096 114.529 58.9488 113.803 58.8572C113.078 58.7655 112.341 58.8455 111.652 59.0906C111.042 59.313 111.305 60.2943 111.922 60.0693C112.419 59.8808 112.951 59.8052 113.481 59.848C114.011 59.8908 114.524 60.0509 114.984 60.3167C115.444 60.5824 115.839 60.9472 116.139 61.3844C116.44 61.8215 116.639 62.3201 116.723 62.8439C117.08 65.1998 115.062 66.7256 113.188 67.6551C111.131 68.6749 108.514 69.6506 106.312 68.479C104.429 67.4768 104.085 65.191 105.129 63.4356C106.423 61.2593 109.337 60.9478 111.538 61.7322C112.155 61.9524 112.421 60.972 111.808 60.7535H111.808Z" fill="#316EED"/>
<path d="M79.9379 74.9644C77.5625 74.1176 74.486 74.4479 72.8189 76.5123C71.3256 78.3613 71.1465 81.3054 73.0465 82.9556C75.3593 84.9643 78.5625 84.2253 81.0879 83.092C83.3987 82.055 85.9424 80.383 85.9066 77.5455C85.9011 76.8162 85.7216 76.0987 85.3829 75.4525C85.0442 74.8062 84.5561 74.2498 83.959 73.8293C83.3529 73.4205 82.659 73.1598 81.9334 73.0681C81.2077 72.9764 80.4706 73.0564 79.7816 73.3016C79.1717 73.5239 79.4352 74.5052 80.052 74.2803C80.5487 74.0918 81.0813 74.0162 81.6109 74.0589C82.1406 74.1017 82.6541 74.2618 83.1139 74.5276C83.5738 74.7934 83.9685 75.1581 84.2692 75.5953C84.57 76.0325 84.7693 76.5311 84.8527 77.0548C85.2094 79.4107 83.1923 80.9365 81.3177 81.8661C79.2612 82.8859 76.6438 83.8616 74.4422 82.69C72.5589 81.6878 72.2145 79.402 73.2586 77.6466C74.553 75.4702 77.4672 75.1587 79.6676 75.9432C80.2851 76.1633 80.5509 75.183 79.9379 74.9644Z" fill="#D9DBE9"/>
<path d="M111.469 103.382C109.093 102.536 106.017 102.866 104.35 104.93C102.856 106.779 102.677 109.723 104.577 111.374C106.89 113.382 110.093 112.643 112.619 111.51C114.929 110.473 117.473 108.801 117.437 105.964C117.432 105.234 117.252 104.517 116.914 103.87C116.575 103.224 116.087 102.668 115.49 102.247C114.884 101.838 114.19 101.578 113.464 101.486C112.738 101.394 112.001 101.474 111.312 101.72C110.703 101.942 110.966 102.923 111.583 102.698C112.079 102.51 112.612 102.434 113.142 102.477C113.671 102.52 114.185 102.68 114.645 102.946C115.105 103.211 115.499 103.576 115.8 104.013C116.101 104.45 116.3 104.949 116.383 105.473C116.74 107.829 114.723 109.354 112.848 110.284C110.792 111.304 108.175 112.28 105.973 111.108C104.09 110.106 103.745 107.82 104.789 106.065C106.084 103.888 108.998 103.577 111.198 104.361C111.816 104.581 112.082 103.601 111.469 103.382H111.469Z" fill="#D9DBE9"/>
<path d="M110.318 112.984C111.087 117.917 113.415 122.477 116.962 125.998C119.671 128.638 122.987 130.576 126.621 131.64C130.254 132.705 134.093 132.864 137.803 132.104C138.436 131.971 138.354 130.959 137.714 131.092C133.184 132.028 128.476 131.545 124.233 129.708C120.844 128.207 117.887 125.882 115.633 122.944C113.378 120.007 111.9 116.551 111.332 112.895C111.233 112.251 110.219 112.337 110.318 112.984V112.984Z" fill="#D9DBE9"/>
<path d="M139.337 138.634L146.902 134.286C146.966 134.241 147.019 134.183 147.057 134.114C147.094 134.046 147.116 133.97 147.12 133.892C147.123 133.814 147.109 133.736 147.078 133.665C147.047 133.593 147 133.53 146.94 133.479L139.151 127.853C138.624 127.472 137.966 128.246 138.497 128.63C141.094 130.506 143.69 132.382 146.286 134.257L146.324 133.451L138.759 137.798C138.191 138.125 138.773 138.957 139.337 138.634Z" fill="#D9DBE9"/>
<path d="M116.76 58.5766C117.529 53.643 119.857 49.0834 123.404 45.5626C126.113 42.9221 129.429 40.9847 133.063 39.9203C136.696 38.8558 140.535 38.6966 144.244 39.4568C144.878 39.5889 144.796 40.6014 144.155 40.4679C139.626 39.5319 134.918 40.0154 130.675 41.8523C127.286 43.3529 124.329 45.6787 122.075 48.6163C119.82 51.5539 118.341 55.0092 117.773 58.6654C117.675 59.3089 116.661 59.2239 116.76 58.5766Z" fill="#262338"/>
<path d="M145.779 32.9289L153.344 37.2764C153.408 37.3211 153.461 37.3799 153.499 37.4482C153.536 37.5166 153.558 37.5926 153.561 37.6705C153.565 37.7484 153.551 37.8261 153.52 37.8976C153.488 37.9692 153.441 38.0326 153.382 38.0831L145.593 43.71C145.065 44.0908 144.408 43.3161 144.939 42.9323L152.728 37.3053L152.766 38.112L145.201 33.7645C144.633 33.438 145.215 32.605 145.779 32.9289V32.9289Z" fill="#262338"/>
<path d="M76.4135 85.9174C75.6449 90.851 73.317 95.4106 69.7693 98.9314C67.0607 101.572 63.7444 103.509 60.1111 104.574C56.4779 105.638 52.6384 105.797 48.9292 105.037C48.2954 104.905 48.3776 103.893 49.0182 104.026C53.5473 104.962 58.2556 104.479 62.4988 102.642C65.8878 101.141 68.845 98.8153 71.0992 95.8777C73.3533 92.9401 74.8322 89.4847 75.4003 85.8285C75.4986 85.185 76.5124 85.2701 76.4135 85.9174H76.4135Z" fill="#D9DBE9"/>
<path d="M47.3947 111.567L39.8294 107.22C39.7653 107.175 39.7124 107.116 39.6747 107.048C39.637 106.98 39.6155 106.904 39.6119 106.826C39.6082 106.748 39.6225 106.67 39.6537 106.599C39.6848 106.527 39.732 106.464 39.7915 106.413L47.5806 100.786C48.1078 100.405 48.7654 101.18 48.2341 101.564L40.445 107.191L40.4072 106.384L47.9726 110.732C48.5407 111.058 47.9583 111.891 47.3947 111.567Z" fill="#D9DBE9"/>
<path d="M15.9577 122.263C12.167 115.754 10.3601 108.764 11.1813 101.136C11.0851 100.708 11.1629 100.26 11.3975 99.8895C11.6322 99.5189 12.0045 99.2563 12.4329 99.1594L28.422 95.5597C28.8506 95.4637 29.2999 95.5413 29.6713 95.7755C30.0426 96.0096 30.3058 96.3812 30.4029 96.8087L35.1793 117.936C35.2755 118.363 35.1978 118.812 34.9631 119.182C34.7285 119.553 34.3561 119.815 33.9277 119.912L17.9386 123.512C17.51 123.608 17.0607 123.53 16.6894 123.296C16.318 123.062 16.0549 122.69 15.9577 122.263Z" fill="#262338"/>
<path d="M15.7417 115.608C13.3592 112.555 12.78 107.545 12.671 102.025C12.5809 101.625 12.6537 101.205 12.8735 100.858C13.0932 100.511 13.442 100.265 13.8432 100.174L27.5845 97.0806C27.9859 96.9907 28.4067 97.0634 28.7545 97.2826C29.1023 97.5019 29.3487 97.8499 29.4397 98.2503L33.6901 117.05C33.7801 117.451 33.7073 117.871 33.4875 118.218C33.2678 118.565 32.919 118.811 32.5178 118.902L24.0054 120.818C22.2173 121.218 20.3431 120.895 18.7939 119.918C17.2447 118.941 16.147 117.391 15.7417 115.608Z" fill="white"/>
<path d="M150.35 145.569C148.602 138.246 148.894 131.033 151.886 123.966C151.918 123.529 152.122 123.122 152.453 122.835C152.785 122.547 153.218 122.403 153.656 122.434L170.006 123.591C170.444 123.623 170.852 123.827 171.14 124.158C171.427 124.489 171.572 124.92 171.541 125.358L170.005 146.961C169.974 147.398 169.769 147.805 169.438 148.092C169.106 148.38 168.673 148.524 168.235 148.493L151.885 147.336C151.447 147.304 151.039 147.101 150.752 146.769C150.464 146.438 150.319 146.007 150.35 145.569Z" fill="#262338"/>
<path d="M152.068 139.132C150.67 135.523 151.564 130.56 153.056 125.243C153.085 124.834 153.276 124.453 153.587 124.184C153.898 123.915 154.303 123.78 154.713 123.808L168.765 124.803C169.175 124.833 169.557 125.024 169.826 125.334C170.096 125.644 170.231 126.048 170.203 126.458L168.836 145.682C168.806 146.091 168.615 146.472 168.304 146.741C167.993 147.01 167.588 147.145 167.178 147.117L158.474 146.5C156.646 146.369 154.945 145.519 153.744 144.138C152.543 142.757 151.94 140.956 152.068 139.132Z" fill="white"/>
<path d="M160.492 141C159.089 141 157.987 140.678 157.186 140.034C156.395 139.391 156 138.503 156 137.37C156 136.476 156.25 135.737 156.751 135.153C157.252 134.569 157.898 134.223 158.688 134.116V134.58C157.976 134.414 157.397 134.05 156.952 133.49C156.518 132.917 156.301 132.232 156.301 131.433C156.301 130.36 156.673 129.52 157.419 128.912C158.176 128.304 159.2 128 160.492 128C161.794 128 162.818 128.304 163.564 128.912C164.31 129.52 164.683 130.36 164.683 131.433C164.683 132.244 164.471 132.935 164.048 133.508C163.636 134.08 163.085 134.425 162.395 134.545V134.116C163.163 134.235 163.787 134.586 164.265 135.171C164.755 135.755 165 136.488 165 137.37C165 138.503 164.599 139.391 163.798 140.034C163.007 140.678 161.905 141 160.492 141ZM160.492 138.872C161.204 138.872 161.733 138.729 162.078 138.443C162.434 138.157 162.612 137.734 162.612 137.173C162.612 136.613 162.434 136.196 162.078 135.922C161.733 135.635 161.204 135.492 160.492 135.492C159.79 135.492 159.262 135.635 158.905 135.922C158.549 136.196 158.371 136.613 158.371 137.173C158.371 137.734 158.549 138.157 158.905 138.443C159.262 138.729 159.79 138.872 160.492 138.872ZM160.492 133.365C161.082 133.365 161.532 133.221 161.844 132.935C162.156 132.637 162.312 132.238 162.312 131.737C162.312 131.237 162.156 130.843 161.844 130.557C161.532 130.271 161.082 130.128 160.492 130.128C159.913 130.128 159.468 130.271 159.156 130.557C158.844 130.843 158.688 131.237 158.688 131.737C158.688 132.238 158.844 132.637 159.156 132.935C159.468 133.221 159.913 133.365 160.492 133.365Z" fill="#262338"/>
<path d="M164.528 38V36.0726L168.347 32.1676C168.824 31.676 169.171 31.2402 169.387 30.8603C169.603 30.4804 169.711 30.0894 169.711 29.6872C169.711 29.1844 169.546 28.8045 169.216 28.5475C168.887 28.2905 168.415 28.162 167.801 28.162C167.29 28.162 166.784 28.257 166.284 28.4469C165.796 28.6257 165.313 28.905 164.835 29.2849L164 27.3743C164.5 26.9497 165.119 26.6145 165.858 26.3687C166.597 26.1229 167.364 26 168.159 26C169.5 26 170.529 26.2961 171.245 26.8883C171.961 27.4693 172.319 28.3017 172.319 29.3855C172.319 30.1117 172.148 30.8045 171.807 31.4637C171.466 32.1229 170.915 32.8212 170.154 33.5587L167.085 36.5251V35.8547H172.779V38H164.528Z" fill="#316EED"/>
<path d="M174.75 38V36.0726L178.568 32.1676C179.045 31.676 179.392 31.2402 179.608 30.8603C179.824 30.4804 179.932 30.0894 179.932 29.6872C179.932 29.1844 179.767 28.8045 179.437 28.5475C179.108 28.2905 178.636 28.162 178.022 28.162C177.511 28.162 177.005 28.257 176.505 28.4469C176.017 28.6257 175.534 28.905 175.056 29.2849L174.221 27.3743C174.721 26.9497 175.341 26.6145 176.079 26.3687C176.818 26.1229 177.585 26 178.38 26C179.721 26 180.75 26.2961 181.466 26.8883C182.182 27.4693 182.54 28.3017 182.54 29.3855C182.54 30.1117 182.369 30.8045 182.028 31.4637C181.687 32.1229 181.136 32.8212 180.375 33.5587L177.307 36.5251V35.8547H183V38H174.75Z" fill="#316EED"/>
<path d="M19.3165 113C18.8941 113 18.4762 112.958 18.0627 112.874C17.6493 112.791 17.2628 112.677 16.9033 112.535C16.5438 112.384 16.2427 112.208 16 112.007L16.6606 110.549C17.0651 110.817 17.4875 111.022 17.9279 111.165C18.3683 111.307 18.8177 111.378 19.2761 111.378C19.7974 111.378 20.2018 111.265 20.4894 111.039C20.786 110.804 20.9343 110.486 20.9343 110.084C20.9343 109.682 20.795 109.359 20.5164 109.116C20.2378 108.873 19.8558 108.751 19.3705 108.751C19.0289 108.751 18.7098 108.81 18.4132 108.927C18.1256 109.045 17.865 109.225 17.6313 109.468H16.2831V104H22.3499V105.596H18.2649V107.997H17.7796C18.0043 107.737 18.3009 107.536 18.6694 107.394C19.0379 107.251 19.4513 107.18 19.9097 107.18C20.5209 107.18 21.0512 107.302 21.5006 107.545C21.959 107.779 22.314 108.11 22.5656 108.538C22.8173 108.957 22.9431 109.451 22.9431 110.021C22.9431 110.608 22.7948 111.127 22.4982 111.58C22.2106 112.024 21.7927 112.372 21.2444 112.623C20.7052 112.874 20.0625 113 19.3165 113Z" fill="#262338"/>
<path d="M24.7175 112.862V111.253H26.8746V105.634H27.8587L24.9467 107.218V105.383L27.4812 104H28.9777V111.253H31V112.862H24.7175Z" fill="#262338"/>
<path d="M1.06371 187.896L107.983 187.999C108.09 187.999 108.192 187.956 108.267 187.881C108.343 187.805 108.385 187.703 108.385 187.597C108.385 187.49 108.343 187.388 108.267 187.313C108.192 187.237 108.09 187.194 107.983 187.194L1.06371 187.09C0.957054 187.09 0.85498 187.133 0.779778 187.209C0.704582 187.284 0.662369 187.386 0.662369 187.493C0.662369 187.599 0.704582 187.701 0.779778 187.777C0.85498 187.852 0.957054 187.895 1.06371 187.896Z" fill="#262338"/>
<path d="M15.0827 158.164C16.0525 148.511 21.8035 138.886 30.9269 135.535C27.5358 145.528 27.7959 156.395 31.6613 166.214C33.1657 169.996 35.2336 174.046 33.9959 177.922C33.2258 180.335 31.2458 182.213 29.0112 183.411C26.7763 184.61 24.2788 185.215 21.8125 185.808L21.3342 186.223C17.1871 177.448 14.113 167.817 15.0827 158.164Z" fill="#A0A3BD"/>
<path d="M31.0221 135.715C25.8085 141.831 22.6587 149.432 22.0202 157.436C21.8521 159.157 21.9568 160.893 22.3306 162.582C22.7479 164.214 23.5958 165.706 24.7861 166.901C25.8736 168.038 27.1178 169.075 27.9094 170.455C28.3041 171.168 28.5434 171.956 28.6115 172.768C28.6796 173.579 28.5751 174.396 28.3048 175.164C27.681 177.096 26.3989 178.689 25.0908 180.204C23.6384 181.885 22.1031 183.609 21.5211 185.806C21.4506 186.072 21.0407 185.947 21.1111 185.682C22.1237 181.859 25.7656 179.614 27.4453 176.153C28.2291 174.538 28.5299 172.677 27.7192 171.011C27.0103 169.554 25.7281 168.484 24.6171 167.342C23.4387 166.193 22.5602 164.774 22.0583 163.208C21.5997 161.544 21.4281 159.815 21.5509 158.093C21.7654 154.214 22.5899 150.392 23.9941 146.768C25.5737 142.623 27.8522 138.779 30.731 135.401C30.9093 135.192 31.1992 135.507 31.0221 135.715V135.715Z" fill="white"/>
<path d="M22.0738 154.842C20.7426 154.553 19.5577 153.801 18.7307 152.72C17.9038 151.64 17.4887 150.301 17.5595 148.943C17.5629 148.888 17.5877 148.836 17.6287 148.798C17.6697 148.761 17.7236 148.741 17.7792 148.742C17.8347 148.744 17.8875 148.767 17.9265 148.806C17.9654 148.846 17.9875 148.899 17.988 148.954C17.9197 150.218 18.3064 151.465 19.0785 152.47C19.8506 153.475 20.9572 154.171 22.1985 154.433C22.4681 154.49 22.342 154.899 22.0738 154.842Z" fill="white"/>
<path d="M24.1588 166.396C26.5154 164.914 28.226 162.601 28.9495 159.917C29.0209 159.651 29.4308 159.776 29.3594 160.042C28.6014 162.833 26.8163 165.237 24.3605 166.773C24.1263 166.919 23.9259 166.541 24.1588 166.396Z" fill="white"/>
<path d="M25.9814 143.017C26.4732 143.236 27.0117 143.33 27.5488 143.29C28.0858 143.25 28.6044 143.078 29.0581 142.788C29.2903 142.639 29.4905 143.017 29.2598 143.165C28.7571 143.483 28.1841 143.673 27.5909 143.718C26.9977 143.764 26.4023 143.663 25.8568 143.426C25.8035 143.408 25.7591 143.371 25.7326 143.321C25.7061 143.272 25.6995 143.214 25.7142 143.16C25.7309 143.106 25.7684 143.06 25.8185 143.034C25.8685 143.007 25.9271 143.001 25.9815 143.017H25.9814Z" fill="white"/>
<path d="M59.375 152.054C59.2326 152.151 59.0903 152.248 58.9479 152.349C57.041 153.666 55.2446 155.136 53.5763 156.743C53.4453 156.866 53.3145 156.991 53.1873 157.117C49.2093 161.033 45.9944 165.651 43.706 170.738C42.7972 172.763 42.0441 174.854 41.4533 176.993C40.6375 179.947 39.9885 183.215 38.2923 185.655C38.1182 185.912 37.9284 186.158 37.7238 186.391L21.8783 186.767C21.8418 186.75 21.8053 186.737 21.7687 186.719L21.1367 186.763C21.1595 186.651 21.1855 186.535 21.2082 186.422C21.2212 186.357 21.2376 186.292 21.2506 186.226C21.2603 186.183 21.2702 186.139 21.2765 186.099C21.2797 186.085 21.283 186.07 21.2863 186.059C21.2926 186.02 21.3027 185.983 21.3091 185.947C21.4527 185.298 21.6012 184.648 21.7544 183.998C21.7544 183.994 21.7544 183.994 21.7578 183.991C22.9384 179.043 24.5434 174.15 26.8416 169.655C26.9108 169.52 26.9797 169.381 27.0561 169.246C28.1033 167.226 29.3142 165.294 30.6767 163.471C31.426 162.475 32.2253 161.517 33.0716 160.602C35.2629 158.241 37.8127 156.239 40.6275 154.669C46.2393 151.539 52.7915 150.236 58.9089 151.92C59.0653 151.964 59.2184 152.007 59.375 152.054Z" fill="#A0A3BD"/>
<path d="M59.344 152.259C51.4908 154.011 44.3903 158.187 39.051 164.194C37.8785 165.467 36.9145 166.917 36.1944 168.489C35.5424 170.044 35.3196 171.744 35.5489 173.413C35.7313 174.974 36.0991 176.55 35.8981 178.128C35.7833 178.934 35.4989 179.707 35.0637 180.396C34.6285 181.085 34.0523 181.674 33.3729 182.125C31.7092 183.293 29.7243 183.794 27.7662 184.218C25.592 184.688 23.3263 185.141 21.5359 186.546C21.3189 186.716 21.067 186.371 21.2836 186.201C24.3986 183.757 28.6605 184.153 32.0901 182.398C33.6904 181.579 35.0532 180.274 35.4111 178.457C35.724 176.868 35.3462 175.243 35.1477 173.664C34.9001 172.039 35.0551 170.378 35.5991 168.826C36.2367 167.222 37.1432 165.738 38.2798 164.437C40.7917 161.468 43.7558 158.912 47.0634 156.863C50.8254 154.502 54.9642 152.801 59.3009 151.834C59.5694 151.774 59.6107 152.2 59.344 152.259Z" fill="white"/>
<path d="M40.6563 162.163C39.7679 161.132 39.2755 159.82 39.2672 158.46C39.2589 157.101 39.7351 155.782 40.6109 154.741C40.7888 154.531 41.1244 154.797 40.9462 155.007C40.1289 155.975 39.6854 157.203 39.6958 158.469C39.7061 159.735 40.1696 160.956 41.0026 161.911C41.1834 162.119 40.8361 162.369 40.6563 162.163Z" fill="white"/>
<path d="M35.351 172.637C38.1264 172.87 40.8878 172.051 43.0848 170.342C43.3023 170.173 43.5543 170.519 43.3371 170.688C41.0476 172.461 38.1721 173.308 35.2845 173.059C35.0093 173.035 35.0773 172.613 35.351 172.637H35.351Z" fill="white"/>
<path d="M50.9106 155.06C51.1711 155.53 51.5445 155.929 51.9974 156.22C52.4503 156.51 52.9685 156.684 53.5054 156.726C53.7807 156.746 53.7125 157.168 53.4389 157.148C52.8459 157.099 52.2739 156.907 51.7728 156.587C51.2717 156.267 50.8568 155.829 50.5643 155.312C50.5326 155.265 50.5198 155.209 50.5286 155.153C50.5373 155.098 50.5669 155.048 50.6113 155.013C50.6573 154.98 50.7146 154.966 50.7706 154.975C50.8266 154.984 50.8769 155.015 50.9106 155.06Z" fill="white"/>
<path d="M26.7528 38.7737L26.7911 38.7722L26.64 38.441C26.4702 37.972 26.2628 37.5173 26.0195 37.0816L21.5862 27.3681C21.4447 27.0581 21.2156 26.7961 20.927 26.6141C20.6384 26.4322 20.3028 26.3383 19.9615 26.344L14.347 26.4373C13.984 26.4434 13.6317 26.5617 13.339 26.7761C13.0463 26.9904 12.8275 27.2902 12.7128 27.6339L9.18317 38.2125C9.06697 38.5087 8.9662 38.8107 8.88124 39.1174L8.76141 39.4765L8.78954 39.4754C8.4625 40.8705 8.46273 42.3221 8.79023 43.717C9.11772 45.112 9.76364 46.4126 10.6776 47.5175C11.5916 48.6225 12.7489 49.5018 14.0594 50.0871C15.3699 50.6723 16.7981 50.9477 18.2328 50.8916C19.6674 50.8356 21.0697 50.4497 22.3304 49.764C23.591 49.0783 24.6759 48.1113 25.5005 46.9385C26.3251 45.7656 26.8672 44.4186 27.0844 43.0024C27.3016 41.5861 27.1881 40.139 26.7528 38.7737H26.7528Z" fill="#262338"/>
<path d="M16.2902 28.8116L14.5234 38.4492L14.7228 38.4856L16.4895 28.848L16.2902 28.8116Z" fill="white"/>
<path d="M18.4124 28.7695L18.2144 28.8125L20.3 38.3864L20.498 38.3435L18.4124 28.7695Z" fill="white"/>
<path d="M13.7354 21.6899L20.9298 21.5703C20.9835 21.5694 21.0354 21.5899 21.0741 21.6272C21.1127 21.6645 21.1349 21.7156 21.1358 21.7692C21.1367 21.8228 21.1162 21.8746 21.0788 21.9132C21.0415 21.9517 20.9903 21.9739 20.9365 21.9748L13.7422 22.0944C13.7156 22.0948 13.6891 22.09 13.6644 22.0803C13.6396 22.0705 13.617 22.056 13.5979 22.0375C13.5788 22.0191 13.5635 21.997 13.5529 21.9727C13.5423 21.9483 13.5366 21.9221 13.5362 21.8955C13.5357 21.869 13.5405 21.8426 13.5503 21.8179C13.5601 21.7932 13.5746 21.7706 13.5931 21.7516C13.6116 21.7325 13.6337 21.7172 13.6582 21.7066C13.6826 21.6961 13.7088 21.6904 13.7354 21.6899Z" fill="#262338"/>
<path d="M13.8111 23.2056L21.0054 23.086C21.0592 23.0851 21.1111 23.1055 21.1497 23.1428C21.1884 23.1801 21.2106 23.2312 21.2115 23.2848C21.2124 23.3385 21.1919 23.3903 21.1545 23.4288C21.1171 23.4674 21.0659 23.4895 21.0122 23.4904L13.8179 23.61C13.7641 23.6109 13.7122 23.5905 13.6736 23.5532C13.6349 23.5159 13.6127 23.4648 13.6118 23.4112C13.6109 23.3575 13.6314 23.3057 13.6688 23.2672C13.7062 23.2286 13.7574 23.2065 13.8111 23.2056Z" fill="#262338"/>
<path d="M13.8868 24.7212L21.0811 24.6016C21.1349 24.6007 21.1868 24.6211 21.2254 24.6584C21.2641 24.6957 21.2863 24.7468 21.2872 24.8005C21.2881 24.8541 21.2676 24.9059 21.2302 24.9444C21.1928 24.983 21.1416 25.0052 21.0879 25.0061L13.8936 25.1257C13.8398 25.1265 13.7879 25.1061 13.7493 25.0688C13.7106 25.0315 13.6884 24.9804 13.6875 24.9268C13.6866 24.8732 13.7071 24.8214 13.7445 24.7828C13.7819 24.7442 13.8331 24.7221 13.8868 24.7212Z" fill="#262338"/>
<path d="M17.3084 20.188C15.8813 20.2118 14.7377 21.0246 14.7541 22.0037L19.9218 21.9178C19.9055 20.9387 18.7354 20.1643 17.3084 20.188Z" fill="#262338"/>
<path d="M18.1035 39.8711C18.3854 39.8901 18.6526 40.004 18.8613 40.1942C18.9147 40.2384 18.9672 40.2848 19.0199 40.3312C19.1866 40.5048 19.3908 40.6382 19.617 40.7211C20.1122 40.8559 20.601 40.4652 21.0136 40.0652L21.1549 40.2102C20.7013 40.6501 20.1576 41.0778 19.5636 40.9162C19.3071 40.8261 19.075 40.6777 18.8857 40.4828C18.8346 40.4377 18.7836 40.3928 18.7319 40.3499C18.5626 40.2097 18.2354 39.9916 17.9446 40.1047C17.824 40.1634 17.7166 40.2461 17.6291 40.3476C17.5613 40.4188 17.4881 40.4846 17.4101 40.5444C17.2504 40.6575 17.0608 40.7209 16.865 40.7267C16.6693 40.7326 16.4763 40.6805 16.3101 40.5771C16.2504 40.5373 16.1929 40.4943 16.1379 40.4483C16.0478 40.359 15.9355 40.2952 15.8126 40.2634C15.6403 40.2393 15.4838 40.362 15.3179 40.4917C15.1611 40.6439 14.9606 40.7433 14.7444 40.776C14.7371 40.7764 14.7297 40.7767 14.7223 40.7768C14.3184 40.7835 14.0622 40.3804 13.9038 40.0739L14.084 39.9812C14.2993 40.3978 14.5069 40.5878 14.7337 40.574C14.9074 40.5408 15.0672 40.4568 15.1928 40.3326C15.3846 40.1824 15.5831 40.0272 15.8405 40.063C16.0007 40.0979 16.148 40.1769 16.2655 40.291C16.3147 40.3324 16.3662 40.371 16.4196 40.4068C16.5516 40.4874 16.7043 40.5279 16.859 40.5233C17.0137 40.5187 17.1637 40.4693 17.2906 40.381C17.3601 40.3273 17.4253 40.2683 17.4857 40.2046C17.5923 40.0825 17.7236 39.9843 17.8709 39.9163C17.9451 39.8875 18.0239 39.8722 18.1035 39.8711Z" fill="white"/>
<path d="M17.5368 0H17.3262V20.1795H17.5368V0Z" fill="#262338"/>
<path d="M163.442 90.4282H157V84H163.442V90.4282ZM157.496 89.9337H162.946V84.4945H157.496L157.496 89.9337Z" fill="#262338"/>
<path d="M48 19C50.2091 19 52 17.2091 52 15C52 12.7909 50.2091 11 48 11C45.7909 11 44 12.7909 44 15C44 17.2091 45.7909 19 48 19Z" fill="#262338"/>
<path d="M71.5 144C72.8807 144 74 142.881 74 141.5C74 140.119 72.8807 139 71.5 139C70.1193 139 69 140.119 69 141.5C69 142.881 70.1193 144 71.5 144Z" fill="#316EED"/>
<path d="M179 107C180.657 107 182 105.657 182 104C182 102.343 180.657 101 179 101C177.343 101 176 102.343 176 104C176 105.657 177.343 107 179 107Z" fill="#316EED"/>
<path d="M122.896 158L120 154.896L123.104 152L126 155.104L122.896 158ZM120.462 154.912L122.912 157.538L125.538 155.088L123.088 152.462L120.462 154.912Z" fill="#262338"/>
<path d="M86.2054 177.921C87.3451 182.125 91.2489 184.729 91.2489 184.729C91.2489 184.729 93.3048 180.516 92.1651 176.312C91.0254 172.108 87.1216 169.504 87.1216 169.504C87.1216 169.504 85.0657 173.716 86.2054 177.921Z" fill="#316EED"/>
<path d="M96.5738 177.921C95.4341 182.125 91.5303 184.729 91.5303 184.729C91.5303 184.729 89.4743 180.516 90.6141 176.312C91.7538 172.108 95.6576 169.504 95.6576 169.504C95.6576 169.504 97.7135 173.716 96.5738 177.921Z" fill="#316EED"/>
<path d="M94.8989 177.02C91.7715 180.058 91.3895 184.728 91.3895 184.728C91.3895 184.728 96.0781 184.473 99.2055 181.435C102.333 178.397 102.715 173.727 102.715 173.727C102.715 173.727 98.0263 173.982 94.8989 177.02Z" fill="#262338"/>
<path d="M87.8808 177.02C91.0081 180.058 91.3901 184.728 91.3901 184.728C91.3901 184.728 86.7016 184.473 83.5742 181.435C80.4468 178.397 80.0648 173.727 80.0648 173.727C80.0648 173.727 84.7534 173.982 87.8808 177.02Z" fill="#262338"/>
</svg>
